<?xml version="1.0" encoding="utf-8"?><!DOCTYPE svg PUBLIC "-//W3C//DTD SVG 1.1//EN" "http://www.w3.org/Graphics/SVG/1.1/DTD/svg11.dtd"><svg viewBox="0 0 512.01 512.01" xmlns="http://www.w3.org/2000/svg" xmlns:xlink="http://www.w3.org/1999/xlink"><style>:root>svg{display:none}:root>svg:target{display:block}</style><svg fill="none" viewBox="0 0 10 10" id="+" xmlns="http://www.w3.org/2000/svg"><path d="M6.12.443v3.69h3.492V5.78H6.12v3.708H4.311V5.78H.837V4.133h3.474V.443H6.12z" fill="#fff"/></svg><svg fill="none" viewBox="0 0 6 3" id="-" xmlns="http://www.w3.org/2000/svg"><path d="M.737.637h4.662v1.854H.737V.637z" fill="#fff"/></svg><svg viewBox="0 0 13 20" id="angle_left" xmlns="http://www.w3.org/2000/svg"><path d="M12.51 1.87L10.73.1.84 10l9.9 9.9 1.77-1.77L4.38 10l8.13-8.13z"/></svg><svg viewBox="0 0 13 20" id="angle_right" xmlns="http://www.w3.org/2000/svg"><path d="M.49 18.13l1.77 1.77 9.9-9.9L2.26.1.49 1.87 8.62 10 .49 18.13z"/></svg><svg viewBox="0 0 10 11" id="arrow_right" xmlns="http://www.w3.org/2000/svg"><path d="M5 .833l-.823.823 3.255 3.26H.333v1.167h7.1L4.176 9.344l.823.823L9.667 5.5 5 .833z"/></svg><svg viewBox="0 0 32 24" id="car" xmlns="http://www.w3.org/2000/svg"><path d="M27.333 6.333h-4.25V.667H3.25A2.842 2.842 0 00.417 3.5v15.583H3.25a4.244 4.244 0 004.25 4.25 4.244 4.244 0 004.25-4.25h8.5a4.244 4.244 0 004.25 4.25 4.244 4.244 0 004.25-4.25h2.833V12l-4.25-5.667zm-.708 2.125L29.4 12h-6.318V8.458h3.542zM7.5 20.5a1.42 1.42 0 01-1.417-1.417c0-.779.638-1.416 1.417-1.416s1.416.637 1.416 1.416A1.42 1.42 0 017.5 20.5zm3.145-4.25c-.78-.864-1.884-1.417-3.145-1.417-1.261 0-2.366.553-3.145 1.417H3.25V3.5h17v12.75h-9.605zM24.5 20.5a1.42 1.42 0 01-1.417-1.417c0-.779.638-1.416 1.417-1.416s1.416.637 1.416 1.416A1.42 1.42 0 0124.5 20.5z"/></svg><svg fill="none" viewBox="0 0 33 32" id="cart" xmlns="http://www.w3.org/2000/svg"><path d="M23.62 17.583c1.188 0 2.233-.649 2.772-1.63L32.06 5.677c.586-1.045-.174-2.344-1.378-2.344H7.25L5.761.167H.583v3.166H3.75l5.7 12.018-2.138 3.863c-1.155 2.122.365 4.703 2.771 4.703h19V20.75h-19l1.742-3.167H23.62zM8.754 6.5h19.238l-4.37 7.917H12.506L8.753 6.5zm1.33 19c-1.741 0-3.15 1.425-3.15 3.167 0 1.741 1.409 3.166 3.15 3.166a3.176 3.176 0 003.167-3.166 3.176 3.176 0 00-3.167-3.167zm15.834 0c-1.742 0-3.151 1.425-3.151 3.167 0 1.741 1.409 3.166 3.15 3.166a3.176 3.176 0 003.167-3.166 3.176 3.176 0 00-3.166-3.167z" fill="#009917"/></svg><svg fill="none" viewBox="0 0 14 14" id="catalog" xmlns="http://www.w3.org/2000/svg"><path d="M.333 3.75h3.334V.417H.333V3.75zm5 10h3.334v-3.333H5.333v3.333zm-5 0h3.334v-3.333H.333v3.333zm0-5h3.334V5.417H.333V8.75zm5 0h3.334V5.417H5.333V8.75zm5-8.333V3.75h3.334V.417h-3.334zm-5 3.333h3.334V.417H5.333V3.75zm5 5h3.334V5.417h-3.334V8.75zm0 5h3.334v-3.333h-3.334v3.333z" fill="#fff"/></svg><svg viewBox="0 0 451.847 451.847" id="cmn--arr_1_down" xmlns="http://www.w3.org/2000/svg"><path d="M225.923 354.706c-8.098 0-16.195-3.092-22.369-9.263L9.27 151.157c-12.359-12.359-12.359-32.397 0-44.751 12.354-12.354 32.388-12.354 44.748 0l171.905 171.915 171.906-171.909c12.359-12.354 32.391-12.354 44.744 0 12.365 12.354 12.365 32.392 0 44.751L248.292 345.449c-6.177 6.172-14.274 9.257-22.369 9.257z"/></svg><svg viewBox="0 0 451.847 451.847" id="cmn--arr_1_left" xmlns="http://www.w3.org/2000/svg"><path d="M97.141 225.92c0-8.095 3.091-16.192 9.259-22.366L300.689 9.27c12.359-12.359 32.397-12.359 44.751 0 12.354 12.354 12.354 32.388 0 44.748L173.525 225.92l171.903 171.909c12.354 12.354 12.354 32.391 0 44.744-12.354 12.365-32.386 12.365-44.745 0l-194.29-194.281c-6.167-6.177-9.252-14.274-9.252-22.372z"/></svg><svg viewBox="0 0 451.846 451.847" id="cmn--arr_1_right" xmlns="http://www.w3.org/2000/svg"><path d="M345.441 248.292L151.154 442.573c-12.359 12.365-32.397 12.365-44.75 0-12.354-12.354-12.354-32.391 0-44.744L278.318 225.92 106.409 54.017c-12.354-12.359-12.354-32.394 0-44.748 12.354-12.359 32.391-12.359 44.75 0l194.287 194.284c6.177 6.18 9.262 14.271 9.262 22.366 0 8.099-3.091 16.196-9.267 22.373z"/></svg><svg viewBox="0 0 451.847 451.846" id="cmn--arr_1_up" xmlns="http://www.w3.org/2000/svg"><path d="M248.292 106.406l194.281 194.29c12.365 12.359 12.365 32.391 0 44.744-12.354 12.354-32.391 12.354-44.744 0L225.923 173.529 54.018 345.44c-12.36 12.354-32.395 12.354-44.748 0-12.359-12.354-12.359-32.391 0-44.75L203.554 106.4c6.18-6.174 14.271-9.259 22.369-9.259 8.095 0 16.192 3.091 22.369 9.265z"/></svg><svg viewBox="0 0 256 256" id="cmn--arrow_down" xmlns="http://www.w3.org/2000/svg"><path d="M225.813 48.907L128 146.72 30.187 48.907 0 79.093l128 128 128-128z"/></svg><svg viewBox="0 0 256 256" id="cmn--arrow_left" xmlns="http://www.w3.org/2000/svg"><path d="M207.093 30.187L176.907 0l-128 128 128 128 30.186-30.187L109.28 128z"/></svg><svg viewBox="0 0 256 256" id="cmn--arrow_right" xmlns="http://www.w3.org/2000/svg"><path d="M79.093 0L48.907 30.187 146.72 128l-97.813 97.813L79.093 256l128-128z"/></svg><svg viewBox="0 0 256 256" id="cmn--arrow_up" xmlns="http://www.w3.org/2000/svg"><path d="M128 48.907l-128 128 30.187 30.186L128 109.28l97.813 97.813L256 176.907z"/></svg><svg viewBox="0 0 16 16" id="cmn--badge_lock" xmlns="http://www.w3.org/2000/svg"><path fill-rule="evenodd" clip-rule="evenodd" d="M1.805.862l-.943.943 2.71 2.71c-.253.21-.502.434-.75.673A15.535 15.535 0 00.772 7.64l-.23.36.23.359c.103.161.292.432.557.777.44.57.94 1.141 1.493 1.676 1.62 1.567 3.36 2.52 5.178 2.52 1.147 0 2.263-.379 3.337-1.053l2.858 2.858.943-.942L1.805.862zm8.558 10.444l-1.008-1.008a2.667 2.667 0 01-3.652-3.652L4.52 5.463c-.258.208-.515.437-.77.683A14.218 14.218 0 002.143 8 14.216 14.216 0 003.75 9.854C5.145 11.205 6.597 12 8 12c.779 0 1.572-.245 2.363-.694zm-3.651-3.65a1.335 1.335 0 001.633 1.633L6.712 7.655zm6.687 2.938l-.943-.942A14.4 14.4 0 0013.856 8a14.22 14.22 0 00-1.605-1.854C10.855 4.796 9.403 4 8 4c-.348 0-.7.05-1.052.144L5.893 3.089A5.658 5.658 0 018 2.667c1.818 0 3.557.954 5.178 2.52a15.542 15.542 0 012.05 2.454l.23.36-.23.359c-.103.161-.292.432-.557.777-.381.493-.807.987-1.272 1.457z"/><path fill-rule="evenodd" clip-rule="evenodd" d="M1.805.862l-.943.943 2.71 2.71c-.253.21-.502.434-.75.673A15.535 15.535 0 00.772 7.64l-.23.36.23.359c.103.161.292.432.557.777.44.57.94 1.141 1.493 1.676 1.62 1.567 3.36 2.52 5.178 2.52 1.147 0 2.263-.379 3.337-1.053l2.858 2.858.943-.942L1.805.862zm8.558 10.444l-1.008-1.008a2.667 2.667 0 01-3.652-3.652L4.52 5.463c-.258.208-.515.437-.77.683A14.218 14.218 0 002.143 8 14.216 14.216 0 003.75 9.854C5.145 11.205 6.597 12 8 12c.779 0 1.572-.245 2.363-.694zm-3.651-3.65a1.335 1.335 0 001.633 1.633L6.712 7.655zm6.687 2.938l-.943-.942A14.4 14.4 0 0013.856 8a14.22 14.22 0 00-1.605-1.854C10.855 4.796 9.403 4 8 4c-.348 0-.7.05-1.052.144L5.893 3.089A5.658 5.658 0 018 2.667c1.818 0 3.557.954 5.178 2.52a15.542 15.542 0 012.05 2.454l.23.36-.23.359c-.103.161-.292.432-.557.777-.381.493-.807.987-1.272 1.457z"/></svg><svg viewBox="0 0 20 14" id="cmn--badge_unlock" xmlns="http://www.w3.org/2000/svg"><path fill-rule="evenodd" clip-rule="evenodd" d="M10 .333c2.273 0 4.447 1.192 6.472 3.151a19.43 19.43 0 011.867 2.095c.332.431.568.77.697.972l.287.449-.287.449a19.432 19.432 0 01-2.563 3.067c-2.026 1.958-4.2 3.15-6.473 3.15-2.273 0-4.446-1.192-6.472-3.15A19.424 19.424 0 011.662 8.42a14.57 14.57 0 01-.697-.971l-.287-.45.287-.448c.129-.202.365-.541.697-.972a19.42 19.42 0 011.866-2.095C5.554 1.525 7.728.333 10 .333zm7.019 6.264a17.765 17.765 0 00-1.705-1.915C13.569 2.995 11.754 2 10 2s-3.568.995-5.313 2.682A17.772 17.772 0 002.681 7a17.774 17.774 0 002.007 2.318C6.431 11.003 8.245 12 10 12c1.755 0 3.57-.996 5.314-2.683A17.767 17.767 0 0017.32 7a17.026 17.026 0 00-.301-.403zM6.667 7a3.333 3.333 0 106.666 0 3.333 3.333 0 00-6.666 0zm5 0a1.667 1.667 0 11-3.333 0 1.667 1.667 0 013.333 0z"/></svg><svg viewBox="0 0 78.369 78.369" id="cmn--check" xmlns="http://www.w3.org/2000/svg"><path d="M78.049 19.015L29.458 67.606a1.094 1.094 0 01-1.548 0L.32 40.015a1.094 1.094 0 010-1.547l6.704-6.704a1.095 1.095 0 011.548 0l20.113 20.112 41.113-41.113a1.095 1.095 0 011.548 0l6.703 6.704a1.094 1.094 0 010 1.548z"/></svg><svg viewBox="0 0 512 512" id="cmn--circle" xmlns="http://www.w3.org/2000/svg"><path d="M256 0C115.39 0 0 115.39 0 256s115.39 256 256 256 256-115.39 256-256S396.61 0 256 0z"/></svg><svg viewBox="0 0 12 12" id="cmn--close" xmlns="http://www.w3.org/2000/svg"><path d="M12 10.735L1.267 0 0 1.265 10.736 12 12 10.735z"/><path d="M12 1.265L10.735 0 0 10.735 1.265 12 12 1.265z"/></svg><svg fill="none" viewBox="0 0 16 15" id="cmn--rate_em" xmlns="http://www.w3.org/2000/svg"><path d="M15.5 5.93l-5.393-.465L8 .5 5.893 5.473.5 5.93l4.095 3.547-1.23 5.273L8 11.953l4.635 2.797-1.223-5.273L15.5 5.93zM8 10.55l-2.82 1.702.75-3.21-2.49-2.16 3.285-.284L8 3.575l1.283 3.03 3.285.285-2.49 2.16.75 3.21L8 10.55z" fill="#434242"/></svg><svg fill="none" viewBox="0 0 16 15" id="cmn--rate_full" xmlns="http://www.w3.org/2000/svg"><path d="M8 11.953l4.635 2.797-1.23-5.273L15.5 5.93l-5.393-.457L8 .5 5.893 5.473.5 5.93l4.095 3.547-1.23 5.273L8 11.953z" fill="#009917"/></svg><svg fill="none" viewBox="0 0 16 15" id="cmn--rate_half" xmlns="http://www.w3.org/2000/svg"><path d="M15.5 5.93l-5.393-.465L8 .5 5.893 5.473.5 5.93l4.095 3.547-1.23 5.273L8 11.953l4.635 2.797-1.223-5.273L15.5 5.93zM8 10.55V3.575l1.283 3.03 3.285.285-2.49 2.16.75 3.21L8 10.55z" fill="#009917"/></svg><svg viewBox="0 0 512.002 512.002" id="cmn--rating" xmlns="http://www.w3.org/2000/svg"><path d="M511.267 197.258a14.995 14.995 0 00-12.107-10.209l-158.723-23.065-70.985-143.827a14.998 14.998 0 00-26.901 0l-70.988 143.827-158.72 23.065a14.998 14.998 0 00-8.312 25.585l114.848 111.954-27.108 158.083a14.999 14.999 0 0021.763 15.812l141.967-74.638 141.961 74.637a15 15 0 0021.766-15.813l-27.117-158.081 114.861-111.955a14.994 14.994 0 003.795-15.375z"/></svg><svg viewBox="0 0 18 18" id="cmn--search" xmlns="http://www.w3.org/2000/svg"><path d="M12.5 11h-.79l-.28-.27a6.5 6.5 0 001.48-5.34c-.47-2.78-2.79-5-5.59-5.34A6.505 6.505 0 00.05 7.32c.34 2.8 2.56 5.12 5.34 5.59a6.5 6.5 0 005.34-1.48l.27.28v.79l4.25 4.25c.41.41 1.08.41 1.49 0 .41-.41.41-1.08 0-1.49L12.5 11zm-6 0C4.01 11 2 8.99 2 6.5S4.01 2 6.5 2 11 4.01 11 6.5 8.99 11 6.5 11z"/></svg><svg viewBox="0 0 199.404 199.404" id="cmn--select" xmlns="http://www.w3.org/2000/svg"><path d="M199.404 63.993L171.12 35.709l-71.418 71.418-71.418-71.418L0 63.993l99.702 99.702z"/></svg><svg viewBox="0 0 512.011 512.011" id="cmn--select_1" xmlns="http://www.w3.org/2000/svg"><path d="M505.755 123.592c-8.341-8.341-21.824-8.341-30.165 0L256.005 343.176 36.421 123.592c-8.341-8.341-21.824-8.341-30.165 0s-8.341 21.824 0 30.165l234.667 234.667a21.275 21.275 0 0015.083 6.251 21.275 21.275 0 0015.083-6.251l234.667-234.667c8.34-8.341 8.34-21.824-.001-30.165z"/></svg><svg viewBox="0 0 451.847 451.847" id="cmn--select_2" xmlns="http://www.w3.org/2000/svg"><path d="M225.923 354.706c-8.098 0-16.195-3.092-22.369-9.263L9.27 151.157c-12.359-12.359-12.359-32.397 0-44.751 12.354-12.354 32.388-12.354 44.748 0l171.905 171.915 171.906-171.909c12.359-12.354 32.391-12.354 44.744 0 12.365 12.354 12.365 32.392 0 44.751L248.292 345.449c-6.177 6.172-14.274 9.257-22.369 9.257z"/></svg><svg fill="none" viewBox="0 0 10 6" id="cmn--select_3" xmlns="http://www.w3.org/2000/svg"><path d="M8.443.443L5 3.877 1.558.443.5 1.5 5 6l4.5-4.5L8.443.443z" fill="#009917"/></svg><svg viewBox="0 0 23 25" id="cmn--upload" xmlns="http://www.w3.org/2000/svg"><path d="M21 11.2L10.65 21.55a5.09 5.09 0 01-7.2 0 5.09 5.09 0 010-7.2L14.7 3.1a3.183 3.183 0 014.5 4.5l-9.45 9.45a1.276 1.276 0 01-1.8 0 1.276 1.276 0 010-1.8L16.5 6.7l-1.35-1.35L6.6 13.9a3.183 3.183 0 004.5 4.5l9.45-9.45a5.09 5.09 0 000-7.2 5.09 5.09 0 00-7.2 0L2.1 13a6.996 6.996 0 000 9.9 6.996 6.996 0 009.9 0l10.35-10.35L21 11.2z"/></svg><svg viewBox="0 0 12 10" id="d_arrow_left" xmlns="http://www.w3.org/2000/svg"><path d="M11.778 1.09L10.783.1 5.807 5.05 10.783 10l.995-.99-3.981-3.96 3.98-3.96z"/><path d="M6.148 1.09L5.153.1.177 5.05 5.153 10l.995-.99-3.98-3.96 3.98-3.96z"/></svg><svg viewBox="0 0 12 10" id="d_arrow_right" xmlns="http://www.w3.org/2000/svg"><path d="M.222 1.09L1.217.1l4.976 4.95L1.217 10l-.995-.99 3.981-3.96-3.98-3.96z"/><path d="M5.852 1.09L6.847.1l4.976 4.95L6.847 10l-.995-.99 3.98-3.96-3.98-3.96z"/></svg><svg fill="none" viewBox="0 0 16 16" id="dog" xmlns="http://www.w3.org/2000/svg"><path d="M8.54.523A7.493 7.493 0 00.522 8.54c.27 3.968 3.735 6.96 7.71 6.96H11c.412 0 .75-.338.75-.75A.752.752 0 0011 14H8.247c-2.797 0-5.362-1.815-6.06-4.522C1.07 5.128 5.12 1.07 9.47 2.195 12.185 2.885 14 5.45 14 8.248v.825c0 .592-.533 1.177-1.125 1.177-.593 0-1.125-.585-1.125-1.177v-.938c0-1.882-1.335-3.577-3.195-3.84A3.756 3.756 0 004.31 8.698a3.747 3.747 0 002.79 2.954c1.38.323 2.692-.12 3.555-.997.667.915 2.002 1.395 3.225.908 1.005-.398 1.62-1.426 1.62-2.505V8.24c0-3.982-2.993-7.447-6.96-7.717zM8 10.25A2.247 2.247 0 015.75 8 2.247 2.247 0 018 5.75 2.247 2.247 0 0110.25 8 2.247 2.247 0 018 10.25z" fill="#009917"/></svg><svg viewBox="0 0 14 28" id="facebook" xmlns="http://www.w3.org/2000/svg"><path d="M13.475 0h-3.37c-3.759 0-6.2 2.705-6.2 6.889v3.179H.534a.495.495 0 00-.378.165.612.612 0 00-.157.407v4.602c0 .151.056.297.155.404a.51.51 0 00.374.167h3.368v11.615a.6.6 0 00.156.403.513.513 0 00.373.169H8.84a.51.51 0 00.374-.167.596.596 0 00.155-.405V15.813h3.948a.51.51 0 00.374-.167.596.596 0 00.155-.404v-4.603a.604.604 0 00-.155-.404.51.51 0 00-.374-.167H9.368V7.373c0-1.292.286-1.951 1.846-1.951h2.26a.524.524 0 00.373-.168A.61.61 0 0014 4.85V.579a.616.616 0 00-.038-.22.578.578 0 00-.113-.188.529.529 0 00-.172-.126.495.495 0 00-.202-.045z"/></svg><svg viewBox="0 0 20 19" id="heart" xmlns="http://www.w3.org/2000/svg"><path d="M14.5 0c-1.74 0-3.41.81-4.5 2.09C8.91.81 7.24 0 5.5 0 2.42 0 0 2.42 0 5.5c0 3.78 3.4 6.86 8.55 11.54L10 18.35l1.45-1.32C16.6 12.36 20 9.28 20 5.5 20 2.42 17.58 0 14.5 0zm-4.4 15.55l-.1.1-.1-.1C5.14 11.24 2 8.39 2 5.5 2 3.5 3.5 2 5.5 2c1.54 0 3.04.99 3.57 2.36h1.87C11.46 2.99 12.96 2 14.5 2c2 0 3.5 1.5 3.5 3.5 0 2.89-3.14 5.74-7.9 10.05z"/></svg><svg viewBox="0 0 30 30" id="instagram" xmlns="http://www.w3.org/2000/svg"><path d="M21.579 0H8.223A8.232 8.232 0 000 8.223V21.58a8.232 8.232 0 008.223 8.223H21.58a8.235 8.235 0 008.223-8.223V8.223A8.232 8.232 0 0021.58 0zm5.579 21.579a5.586 5.586 0 01-5.58 5.579H8.224a5.586 5.586 0 01-5.579-5.58V8.224a5.586 5.586 0 015.58-5.579h13.355a5.586 5.586 0 015.579 5.58v13.355z"/><path d="M14.899 6.877a8.024 8.024 0 108.026 8.024 8.033 8.033 0 00-8.026-8.024zm0 13.282a5.262 5.262 0 11.005-10.523 5.262 5.262 0 01-.005 10.523zM22.927 4.584a2.292 2.292 0 10-.005 4.584 2.292 2.292 0 00.005-4.584z"/></svg><svg viewBox="0 0 34 34" id="location" xmlns="http://www.w3.org/2000/svg"><path d="M17 17a2.842 2.842 0 01-2.834-2.833A2.842 2.842 0 0117 11.333a2.842 2.842 0 012.833 2.834A2.842 2.842 0 0117 17zm8.5-2.55c0-5.142-3.754-8.783-8.5-8.783s-8.5 3.64-8.5 8.783c0 3.315 2.762 7.707 8.5 12.948 5.737-5.241 8.5-9.633 8.5-12.948zM17 2.833c5.95 0 11.333 4.562 11.333 11.617 0 4.703-3.782 10.27-11.333 16.717C9.449 24.72 5.666 19.153 5.666 14.45 5.666 7.395 11.05 2.833 17 2.833z"/></svg><svg viewBox="0 0 30 20" id="moped" xmlns="http://www.w3.org/2000/svg"><path d="M24.917 2.917A2.842 2.842 0 0022.083.083h-4.25v2.834h4.25V6.67l-4.93 6.162h-4.986V5.75H6.5a5.665 5.665 0 00-5.667 5.667v4.25h2.834a4.244 4.244 0 004.25 4.25 4.244 4.244 0 004.25-4.25h6.347l6.403-8.005V2.917zm-21.25 9.916v-1.416A2.842 2.842 0 016.5 8.583h2.834v4.25H3.667zm4.25 4.25A1.42 1.42 0 016.5 15.667h2.834a1.42 1.42 0 01-1.417 1.416z"/><path d="M12.167 1.5H5.084v2.833h7.083V1.5zM24.917 11.417a4.244 4.244 0 00-4.25 4.25 4.244 4.244 0 004.25 4.25 4.244 4.244 0 004.25-4.25 4.244 4.244 0 00-4.25-4.25zm0 5.666a1.42 1.42 0 01-1.417-1.416c0-.78.638-1.417 1.417-1.417.78 0 1.417.637 1.417 1.417a1.42 1.42 0 01-1.417 1.416z"/></svg><svg viewBox="0 0 14 14" id="phone" xmlns="http://www.w3.org/2000/svg"><path d="M12.422 9.445l-1.905-.218a1.493 1.493 0 00-1.23.428l-1.38 1.38a11.284 11.284 0 01-4.942-4.942l1.388-1.388c.322-.322.48-.772.427-1.23l-.217-1.89A1.501 1.501 0 003.07.257H1.773C.925.257.22.962.273 1.81.67 8.215 5.793 13.33 12.19 13.727c.848.053 1.553-.652 1.553-1.5V10.93a1.486 1.486 0 00-1.32-1.485z"/></svg><svg viewBox="0 0 34 34" id="post" xmlns="http://www.w3.org/2000/svg"><path fill-rule="evenodd" clip-rule="evenodd" d="M27.243 10.06c.102-.035.237.034.372.222l6.119 6.033c.355.36.355.908 0 1.182l-6.119 6.135c-.135.172-.27.223-.372.172-.101-.052-.169-.223-.169-.446V10.454c0-.223.068-.36.17-.394zM16.78 0h.44l.405.171 6.305 6.324c.27.36.169.617-.27.617h-2.62a.828.828 0 00-.812.822v4.696c0 .446-.355.805-.896.805h-4.58a.803.803 0 01-.812-.805V7.934a.817.817 0 00-.811-.822H10.34c-.456 0-.54-.257-.27-.617L16.374.171 16.78 0zM6.926 9.922c.101.069.169.223.169.446v13.161c0 .24-.068.377-.17.412-.117.051-.27 0-.455-.137L.266 17.496c-.355-.274-.355-.823 0-1.182l6.204-6.221c.185-.172.338-.223.456-.172zM14.752 20.29h4.58c.541 0 .913.36.913.823v4.953c0 .548.355.908.795.908h2.434c.456 0 .625.257.27.531l-6.119 6.22A.868.868 0 0117 34a.841.841 0 01-.625-.274l-6.12-6.221c-.371-.274-.185-.531.254-.531h2.62c.457 0 .812-.36.812-.909v-4.952c0-.463.354-.823.81-.823z"/></svg><svg viewBox="0 0 24 22" id="scales" xmlns="http://www.w3.org/2000/svg"><path d="M14.77 11.308a4.62 4.62 0 004.615 4.616c1.232 0 2.391-.48 3.263-1.352A4.585 4.585 0 0024 11.308a.923.923 0 00-.132-.475l-2.896-4.828a.923.923 0 00-.357-1.774h-7.692V1.46a.923.923 0 00-1.846 0v2.77H3.385a.923.923 0 00-.357 1.774L.132 10.833a.922.922 0 00-.132.475 4.62 4.62 0 004.615 4.616 4.62 4.62 0 004.616-4.616.923.923 0 00-.132-.475L6.246 6.077h4.83v13.538H4a.923.923 0 000 1.847h16a.923.923 0 100-1.847h-7.077V6.077h4.831l-2.853 4.756a.922.922 0 00-.132.475zm-10.155 2.77a2.774 2.774 0 01-2.61-1.847h5.22a2.773 2.773 0 01-2.61 1.846zm2.062-3.693H2.553l2.062-3.437 2.062 3.437zm12.708-3.437l2.062 3.437h-4.124l2.062-3.437zm2.61 5.283a2.773 2.773 0 01-2.61 1.846 2.774 2.774 0 01-2.61-1.846h5.22z"/></svg><svg viewBox="0 0 14 14" id="telegram" xmlns="http://www.w3.org/2000/svg"><path fill-rule="evenodd" clip-rule="evenodd" d="M.7 7a6.3 6.3 0 1012.6 0A6.3 6.3 0 00.7 7zM7 0a7 7 0 100 14A7 7 0 007 0z"/><path d="M9.63 3.79s.692-.281.633.404c-.02.284-.192 1.274-.325 2.344l-.46 3.172s-.04.465-.384.545c-.345.08-.864-.282-.96-.364-.077-.06-1.438-.969-1.918-1.415-.135-.122-.288-.364.02-.646l2.013-2.02c.231-.243.46-.81-.5-.122L5.065 7.609s-.308.202-.882.02l-1.248-.402s-.46-.303.326-.607c1.92-.95 4.28-1.92 6.37-2.83z"/></svg><svg viewBox="0 0 7 13" id="tip" xmlns="http://www.w3.org/2000/svg"><path d="M.648 1.56a4.336 4.336 0 011.2-.808c.24-.107.496-.19.768-.248a3.98 3.98 0 01.896-.096c.421 0 .81.061 1.168.184.363.123.675.296.936.52.261.224.467.496.616.816.15.32.224.68.224 1.08 0 .405-.061.755-.184 1.048-.117.293-.27.552-.456.776-.181.219-.381.41-.6.576l-.608.456a4.115 4.115 0 00-.496.432.846.846 0 00-.232.48L3.736 8H2.76l-.096-1.328a.97.97 0 01.136-.624 2.15 2.15 0 01.44-.504c.181-.16.381-.315.6-.464a4.68 4.68 0 00.608-.512 2.64 2.64 0 00.48-.632c.128-.24.192-.525.192-.856a1.396 1.396 0 00-.504-1.096 1.584 1.584 0 00-.552-.304 2.112 2.112 0 00-.672-.104c-.325 0-.605.04-.84.12-.23.08-.424.168-.584.264a3.79 3.79 0 00-.392.264c-.096.08-.176.12-.24.12a.348.348 0 01-.312-.184l-.376-.6zm1.56 9.56c0-.139.024-.27.072-.392.053-.123.123-.23.208-.32.09-.09.197-.163.32-.216a.973.973 0 01.392-.08c.139 0 .27.027.392.08a1.025 1.025 0 01.536.536c.053.123.08.253.08.392a.992.992 0 01-.08.4 1.056 1.056 0 01-.216.312.922.922 0 01-.32.208.973.973 0 01-.392.08.973.973 0 01-.392-.08.922.922 0 01-.32-.208 1.14 1.14 0 01-.208-.312 1.088 1.088 0 01-.072-.4z"/></svg><svg viewBox="0 0 14 13" id="viber" xmlns="http://www.w3.org/2000/svg"><path d="M7.643 3.68c1.128-.01 2.162.977 2.305 2.2l.011.078c.01.06.02.123.02.186 0 .25-.171.318-.273.335a.31.31 0 01-.249-.048c-.11-.083-.129-.229-.145-.346-.004-.035-.008-.067-.014-.094-.24-1.099-.615-1.468-1.676-1.65a.947.947 0 00-.091-.008c-.127-.008-.39-.024-.39-.315 0-.024.001-.05.005-.077.04-.272.282-.263.397-.259.033.001.064.002.084 0l.016-.002z"/><path d="M10.362 6.215c-.003-.032-.005-.063-.009-.089-.27-1.803-1.102-2.633-2.872-2.863a1.02 1.02 0 00-.106-.005c-.138-.002-.425-.007-.431-.324v-.01c0-.1.029-.178.086-.235.1-.099.25-.092.37-.086l.082.002c1.81-.023 3.452 1.586 3.513 3.444a.14.14 0 01-.001.022l-.001.022.003.065c.002.03.004.063.004.096 0 .296-.205.352-.327.36-.282.016-.302-.264-.311-.399zM5.194 3.35c.028.04.058.079.087.116.154.197.296.406.434.609L5.8 4.2c.178.26.264.493.264.713 0 .297-.16.556-.475.77-.14.094-.207.209-.207.35 0 .084.023.18.069.283.37.838.937 1.436 1.686 1.778.362.165.598.111.79-.18.11-.165.313-.472.703-.45.442.024 1.772 1.026 1.923 1.448a.842.842 0 01.002.56c-.159.484-.438.833-.807 1.006-.356.168-.775.16-1.21-.021a9.747 9.747 0 01-3.262-2.201c-.887-.914-1.613-2.037-2.159-3.338a1.89 1.89 0 01-.095-.33 2.433 2.433 0 00-.018-.077A.126.126 0 013 4.48v-.01c0-.612.545-1.347 1.166-1.573.543-.197.812.164 1.028.454zM8.924 5.945c-.003.104-.008.322-.224.399-.101.036-.189.031-.261-.013-.106-.065-.138-.19-.156-.302-.064-.411-.285-.622-.696-.664-.19-.02-.325-.152-.325-.322l.003-.038c.023-.204.17-.303.434-.294.276-.004.59.145.84.397.25.254.391.559.385.837z"/><path fill-rule="evenodd" clip-rule="evenodd" d="M8 .7H6C4.566.7 3.56.701 2.801.804c-.739.099-1.14.282-1.427.57-.288.287-.471.688-.57 1.427C.7 3.561.7 4.566.7 6v1c0 1.434.001 2.44.104 3.198.099.74.282 1.14.57 1.428.287.288.688.471 1.427.57.76.103 1.765.104 3.199.104h2c1.434 0 2.44-.002 3.198-.104.74-.099 1.14-.282 1.428-.57.288-.287.471-.688.57-1.428C13.3 9.44 13.3 8.434 13.3 7V6c0-1.434-.002-2.44-.104-3.199-.099-.739-.282-1.14-.57-1.427-.287-.288-.688-.471-1.428-.57C10.44.7 9.434.7 8 .7zM.879.879C0 1.757 0 3.172 0 6v1c0 2.828 0 4.243.879 5.121C1.757 13 3.172 13 6 13h2c2.828 0 4.243 0 5.121-.879C14 11.243 14 9.828 14 7V6c0-2.828 0-4.243-.879-5.121C12.243 0 10.828 0 8 0H6C3.172 0 1.757 0 .879.879z"/></svg></svg>