<svg width="682" height="456" viewBox="0 0 682 456" fill="none" xmlns="http://www.w3.org/2000/svg">
<path d="M11.5527 455.018C11.5527 455.018 73.5045 193.684 142.792 171.678C212.079 149.673 230.097 196.479 263.005 193.468C295.913 190.458 406.294 98.2484 445.724 61.6653C512.88 -0.639152 701.341 -36.7731 662.026 57.9532C629.118 137.241 511.937 262.681 529.132 297.107C532.473 303.789 603.85 258.082 623.108 264.047C709.46 290.774 594.042 455.292 594.042 455.292L11.5527 455.018Z" fill="#F7F7F7"/>
<path d="M681.363 90.7128H615.343V66.9329H632.734C632.882 66.9329 633.023 66.8742 633.128 66.7697C633.232 66.6653 633.291 66.5237 633.291 66.376C633.291 66.2284 633.232 66.0867 633.128 65.9823C633.023 65.8779 632.882 65.8192 632.734 65.8192H592.327V43.4202H653.151C653.298 43.4202 653.44 43.3615 653.545 43.2571C653.649 43.1527 653.708 43.011 653.708 42.8634C653.708 42.7157 653.649 42.5741 653.545 42.4696C653.44 42.3652 653.298 42.3065 653.151 42.3065H536.59C536.442 42.3065 536.3 42.3652 536.196 42.4696C536.092 42.5741 536.033 42.7157 536.033 42.8634C536.033 43.011 536.092 43.1527 536.196 43.2571C536.3 43.3615 536.442 43.4202 536.59 43.4202H549.022V65.8118H516.173C516.025 65.8118 515.884 65.8704 515.779 65.9749C515.675 66.0793 515.616 66.2209 515.616 66.3686C515.616 66.5163 515.675 66.6579 515.779 66.7623C515.884 66.8668 516.025 66.9254 516.173 66.9254H574.884V90.7128H564.802C564.654 90.7128 564.513 90.7714 564.408 90.8759C564.304 90.9803 564.245 91.1219 564.245 91.2696C564.245 91.4173 564.304 91.5589 564.408 91.6633C564.513 91.7677 564.654 91.8264 564.802 91.8264H681.363C681.511 91.8264 681.652 91.7677 681.757 91.6633C681.861 91.5589 681.92 91.4173 681.92 91.2696C681.92 91.1219 681.861 90.9803 681.757 90.8759C681.652 90.7714 681.511 90.7128 681.363 90.7128ZM550.124 65.8192V43.4202H591.206V65.8118L550.124 65.8192ZM614.222 90.7128H575.987V66.9329H614.222V90.7128Z" fill="white"/>
<path d="M131.781 377.999H98.9288V355.611H111.364C111.512 355.611 111.654 355.552 111.758 355.448C111.863 355.343 111.921 355.202 111.921 355.054C111.921 354.906 111.863 354.765 111.758 354.66C111.654 354.556 111.512 354.497 111.364 354.497H34.7089C34.5612 354.497 34.4196 354.556 34.3152 354.66C34.2108 354.765 34.1521 354.906 34.1521 355.054C34.1521 355.202 34.2108 355.343 34.3152 355.448C34.4196 355.552 34.5612 355.611 34.7089 355.611H55.6305V378.002H15.2128C15.0651 378.002 14.9235 378.061 14.8191 378.165C14.7146 378.27 14.656 378.411 14.656 378.559C14.656 378.707 14.7146 378.848 14.8191 378.953C14.9235 379.057 15.0651 379.116 15.2128 379.116H32.6078V402.9H14.2922C14.1445 402.9 14.0029 402.958 13.8984 403.063C13.794 403.167 13.7354 403.309 13.7354 403.456C13.7354 403.604 13.794 403.746 13.8984 403.85C14.0029 403.955 14.1445 404.013 14.2922 404.013H83.1523C83.2999 404.013 83.4416 403.955 83.546 403.85C83.6504 403.746 83.7091 403.604 83.7091 403.456C83.7091 403.309 83.6504 403.167 83.546 403.063C83.4416 402.958 83.2999 402.9 83.1523 402.9H73.0701V379.116H131.781C131.929 379.116 132.071 379.057 132.175 378.953C132.279 378.848 132.338 378.707 132.338 378.559C132.338 378.411 132.279 378.27 132.175 378.165C132.071 378.061 131.929 378.002 131.781 378.002V377.999ZM71.9565 402.896H33.7215V379.112H71.9565V402.896ZM56.7367 377.999V355.611H97.8152V378.002L56.7367 377.999Z" fill="white"/>
<path d="M394.659 429.219L394.64 440.878H378.485L377.138 429.816L394.659 429.219Z" fill="white"/>
<path d="M395.242 441.483H377.951L376.466 429.233L395.272 428.591L395.242 441.483ZM379.02 440.277H394.043V429.842L377.806 430.399L379.02 440.277Z" fill="#434242"/>
<path d="M395.527 440.177C395.527 440.177 418.876 447.601 419.682 453.693H377.812V440.177H395.527Z" fill="#AFD0B4"/>
<path d="M329.542 429.475L329.104 441.268H312.948L312.184 429.219L329.542 429.475Z" fill="white"/>
<path d="M329.682 441.873H312.376L311.533 428.606L330.164 428.881L329.682 441.873ZM313.515 440.667H328.52L328.917 430.069L312.825 429.831L313.515 440.667Z" fill="#434242"/>
<path d="M329.987 440.567C329.987 440.567 353.336 447.991 354.142 454.082H312.276V440.567H329.987Z" fill="#AFD0B4"/>
<path d="M355.663 451.762V455.274H311.185V451.258L355.663 451.762Z" fill="#434242"/>
<path d="M376.507 451.142V454.884H420.986V450.868L376.507 451.142Z" fill="#434242"/>
<path d="M334.901 431.62H309.187L306.997 225.545L381.106 238.344L398.746 431.62H373.997L348.087 303.207L351.053 275.05L334.901 431.62Z" fill="#434242"/>
<path d="M362.437 251.367C362.437 251.367 362.189 268.442 359.219 268.984H330.821C329.893 268.09 328.408 262.993 337.317 262.807C346.226 262.622 348.877 262.807 348.877 262.807L348.454 251.367H362.437Z" fill="white"/>
<path d="M359.268 269.489H330.614L330.461 269.344C329.823 268.724 329.251 267.065 329.845 265.554C330.406 264.118 332.158 262.384 337.307 262.276C344.011 262.135 347.162 262.206 348.339 262.25L347.916 250.836H362.961V251.359C362.902 255.442 362.464 268.888 359.323 269.478L359.268 269.489ZM331.055 268.453H359.149C360.671 268.03 361.747 259.663 361.896 251.871H348.978L349.401 263.349L348.825 263.308C348.799 263.308 346.075 263.13 337.318 263.308C332.741 263.401 331.245 264.793 330.799 265.929C330.648 266.345 330.593 266.789 330.639 267.229C330.684 267.669 330.829 268.093 331.063 268.468L331.055 268.453Z" fill="#434242"/>
<path d="M396.857 114.886C396.857 114.886 390.004 133.35 390.958 135.852C391.912 138.354 392.072 147.998 392.072 147.998L373.471 183.761L342.953 172.383L349.468 139.776C349.468 139.776 366.87 131.94 368.37 129.779C370.449 126.787 375.163 109.103 375.163 109.103L396.857 114.886Z" fill="white"/>
<path d="M373.745 184.481L342.3 172.755L348.982 139.383L349.249 139.264C356.187 136.138 366.882 130.952 367.917 129.46C369.911 126.583 374.599 109.14 374.625 108.965C374.664 108.818 374.76 108.691 374.892 108.615C375.024 108.538 375.181 108.516 375.329 108.555C375.476 108.594 375.602 108.69 375.679 108.822C375.756 108.954 375.778 109.111 375.739 109.259C375.546 110.001 370.972 127.077 368.864 130.113C367.379 132.255 352.72 138.952 349.995 140.184L343.632 172.023L373.218 183.056L391.519 147.868C391.493 146.662 391.293 138.28 390.442 136.064C389.459 133.491 395.183 117.811 396.341 114.693C396.367 114.623 396.407 114.558 396.459 114.503C396.51 114.448 396.572 114.404 396.64 114.373C396.708 114.341 396.782 114.324 396.857 114.321C396.933 114.319 397.007 114.331 397.078 114.357C397.148 114.383 397.213 114.423 397.268 114.475C397.323 114.526 397.367 114.588 397.398 114.656C397.43 114.724 397.447 114.798 397.45 114.873C397.452 114.949 397.44 115.024 397.414 115.094C394.793 122.147 390.873 133.981 391.512 135.652C392.495 138.217 392.659 147.597 392.666 147.995V148.139L392.599 148.269L373.745 184.481Z" fill="#434242"/>
<path d="M404.243 75.8048C407.956 77.5013 417.024 81.5104 414.719 88.3964C412.091 96.2512 407.384 105.903 404.815 110.959C404.325 111.922 403.505 112.676 402.504 113.085C401.504 113.494 400.39 113.53 399.366 113.186L375.653 105.249C374.603 104.897 373.719 104.169 373.172 103.207C372.624 102.244 372.45 101.113 372.683 100.03C374.286 92.4723 377.82 76.5138 379.461 74.4796C385.041 67.549 398.367 73.1172 404.243 75.8048Z" fill="#434242"/>
<path d="M375.772 111C374.937 109.24 376.188 103.805 378.051 97.7547C378.076 97.6697 378.08 97.5797 378.062 97.4929C378.044 97.406 378.004 97.3251 377.947 97.2573C376.7 95.8059 375.111 93.07 376.173 90.1114C377.093 87.5501 378.771 88.7157 379.967 90.0372C380.016 90.0906 380.079 90.13 380.149 90.1515C380.218 90.173 380.292 90.1757 380.363 90.1596C380.434 90.1434 380.5 90.1088 380.554 90.0594C380.607 90.0099 380.647 89.9472 380.668 89.8776C383.207 82.676 385.732 76.4619 385.732 76.4619L413.91 85.8907C413.91 85.8907 411.683 92.3313 408.999 99.4809C408.877 99.8001 401.916 116.675 400.714 118.012C399.975 118.769 399.019 119.277 397.978 119.467C397.978 119.467 395.673 120.339 385.431 116.913L375.772 111Z" fill="white"/>
<path d="M396.968 120.143C395.394 120.143 392.012 119.719 385.249 117.459C385.177 117.434 385.111 117.396 385.054 117.346C384.997 117.296 384.951 117.236 384.917 117.168C384.884 117.1 384.864 117.026 384.859 116.95C384.854 116.875 384.864 116.799 384.889 116.727C384.913 116.656 384.951 116.59 385.001 116.533C385.051 116.476 385.112 116.429 385.18 116.396C385.248 116.363 385.321 116.343 385.397 116.338C385.472 116.333 385.548 116.343 385.62 116.367C395.312 119.612 397.77 118.929 397.796 118.921H397.855C398.78 118.758 399.632 118.311 400.29 117.641C401.37 116.438 408.208 99.9598 408.457 99.2916C410.684 93.419 412.577 87.9733 413.171 86.2657L386.073 77.1933C385.423 78.8117 383.318 84.1387 381.221 90.0818C381.165 90.2468 381.067 90.3944 380.937 90.5103C380.807 90.6261 380.649 90.7061 380.479 90.7425C380.312 90.7759 380.139 90.7651 379.977 90.711C379.816 90.657 379.671 90.5616 379.558 90.4345C378.767 89.5547 378.055 89.1018 377.605 89.1909C377.156 89.28 376.907 89.8516 376.737 90.3045C375.675 93.2742 377.55 95.8727 378.403 96.8824C378.525 97.0227 378.61 97.1918 378.648 97.3737C378.686 97.5556 378.677 97.7443 378.622 97.9218C375.746 107.258 375.942 109.968 376.314 110.755C376.377 110.892 376.384 111.049 376.332 111.192C376.281 111.334 376.175 111.451 376.038 111.516C375.901 111.581 375.744 111.589 375.601 111.539C375.458 111.489 375.341 111.385 375.274 111.248C374.476 109.563 375.211 105.101 377.501 97.61C376.507 96.4481 374.383 93.419 375.645 89.9185C376.017 88.8271 376.618 88.196 377.371 88.0624C378.218 87.8953 379.176 88.3705 380.219 89.4693C382.706 82.4162 385.182 76.3209 385.208 76.2578L385.412 75.7604L414.652 85.5456L414.463 86.095C414.441 86.1581 412.214 92.6209 409.548 99.6962C409.485 99.8595 402.495 116.928 401.155 118.409C400.344 119.251 399.29 119.819 398.141 120.035C397.757 120.129 397.362 120.165 396.968 120.143Z" fill="#434242"/>
<path d="M393.075 97.1319C392.916 97.1312 392.76 97.0918 392.62 97.0173C392.48 96.9428 392.36 96.8354 392.27 96.7042C392.181 96.5731 392.124 96.4222 392.106 96.2645C392.088 96.1067 392.108 95.9469 392.165 95.7988L392.392 95.2269C392.437 95.1052 392.505 94.9936 392.594 94.8987C392.682 94.8037 392.789 94.7274 392.907 94.6742C393.026 94.6209 393.153 94.5917 393.283 94.5884C393.413 94.5851 393.542 94.6076 393.663 94.6548C393.784 94.7019 393.894 94.7726 393.987 94.8629C394.081 94.9531 394.155 95.0611 394.206 95.1804C394.257 95.2997 394.284 95.428 394.285 95.5578C394.286 95.6875 394.261 95.8162 394.211 95.9362L393.985 96.5081C393.914 96.6919 393.789 96.85 393.627 96.9614C393.465 97.0728 393.272 97.1323 393.075 97.1319Z" fill="#434242"/>
<path d="M404.782 101.568C404.673 101.568 404.565 101.549 404.463 101.512C404.218 101.428 404.017 101.25 403.904 101.017C403.79 100.785 403.774 100.517 403.858 100.272L404.095 99.5849C404.18 99.3387 404.359 99.1362 404.593 99.022C404.827 98.9078 405.097 98.8912 405.343 98.9759C405.589 99.0606 405.792 99.2397 405.906 99.4737C406.02 99.7077 406.037 99.9775 405.952 100.224L405.718 100.911C405.65 101.104 405.524 101.272 405.356 101.39C405.188 101.508 404.987 101.57 404.782 101.568Z" fill="#434242"/>
<path d="M388.813 91.2622C388.66 91.2612 388.51 91.2151 388.382 91.1297C388.255 91.0443 388.155 90.9232 388.096 90.7816C388.037 90.6401 388.02 90.4842 388.049 90.3333C388.077 90.1825 388.15 90.0434 388.257 89.9333C391.226 86.9227 396.186 88.5338 396.397 88.6006C396.585 88.6731 396.738 88.8151 396.824 88.9972C396.91 89.1793 396.922 89.3874 396.859 89.5785C396.795 89.7696 396.66 89.9289 396.483 90.0232C396.305 90.1176 396.097 90.1399 395.904 90.0855C395.863 90.0855 391.649 88.7157 389.37 91.0283C389.298 91.1024 389.211 91.1612 389.115 91.2014C389.02 91.2415 388.917 91.2622 388.813 91.2622Z" fill="#434242"/>
<path d="M398.315 105.476C398.026 105.474 397.738 105.458 397.45 105.428C397.36 105.424 397.271 105.402 397.189 105.362C397.108 105.323 397.035 105.267 396.976 105.198C396.917 105.129 396.873 105.049 396.846 104.963C396.819 104.876 396.81 104.785 396.82 104.695C396.83 104.605 396.859 104.518 396.904 104.439C396.949 104.36 397.01 104.292 397.082 104.238C397.155 104.184 397.238 104.145 397.326 104.124C397.414 104.103 397.506 104.101 397.595 104.117C398.616 104.229 399.633 104.062 399.752 103.846C399.922 103.475 400.186 101.122 400.398 99.2395C400.806 95.635 401.081 93.3966 401.474 92.7136C401.578 92.5314 401.722 92.3758 401.896 92.2592C402.07 92.1426 402.269 92.0681 402.476 92.0417C404.429 91.7336 407.937 94.8221 408.62 95.4457C408.684 95.504 408.736 95.5742 408.772 95.6525C408.809 95.7308 408.83 95.8155 408.834 95.9018C408.838 95.9882 408.825 96.0745 408.795 96.1558C408.766 96.237 408.721 96.3118 408.663 96.3756C408.604 96.4395 408.534 96.4912 408.456 96.5279C408.378 96.5646 408.293 96.5856 408.207 96.5895C408.12 96.5935 408.034 96.5804 407.953 96.551C407.871 96.5216 407.797 96.4766 407.733 96.4183C404.815 93.7678 402.888 93.159 402.621 93.3632C402.328 93.8718 401.953 97.1904 401.708 99.3843C401.337 102.644 401.162 104.017 400.906 104.485C400.45 105.309 399.239 105.476 398.315 105.476Z" fill="#434242"/>
<path d="M406.812 86.9487C410.524 87.951 417.841 88.8419 419.504 81.4325C421.167 74.023 418.906 76.1612 418.906 76.1612C418.906 76.1612 416.887 77.2748 416.308 77.1449C415.729 77.015 416.757 77.8094 416.805 71.2055C416.805 71.2055 411.746 68.4103 408.304 71.0385C404.863 73.6667 403.82 71.2278 403.501 69.2381C403.23 67.5454 400.342 68.6776 399.418 70.0102C398.037 71.3948 390.041 67.8089 387.168 68.2395C382.65 68.9151 381.035 69.3012 379.446 74.4685C379.142 75.4596 377.523 85.5752 377.523 85.5752L383.971 76.5176C383.971 76.5176 400.758 85.3079 406.812 86.9487Z" fill="#434242"/>
<path d="M399.24 109.496C399.433 109.979 398.679 111.452 397.325 110.862C393.854 109.351 391.537 105.621 392.321 106.129C392.629 106.33 394.696 107.7 396.137 108.431C398.126 109.415 399.036 108.936 399.24 109.496Z" fill="#434242"/>
<path d="M369.191 130.473C369.191 130.473 392.663 138.77 393.591 138.829C394.519 138.889 378.98 245.138 378.98 245.138L329.649 229.298L369.191 130.473Z" fill="#009917"/>
<path d="M336.505 256.46C336.346 256.46 336.194 256.397 336.082 256.285C335.97 256.172 335.907 256.02 335.907 255.862V168.827C335.907 168.669 335.97 168.517 336.082 168.405C336.194 168.293 336.346 168.23 336.505 168.23C336.663 168.23 336.815 168.293 336.927 168.405C337.04 168.517 337.103 168.669 337.103 168.827V255.862C337.103 256.02 337.04 256.172 336.927 256.285C336.815 256.397 336.663 256.46 336.505 256.46Z" fill="#434242"/>
<path d="M404.066 187.451C405.836 190.606 444.22 162.435 444.792 160.289C446.098 155.371 442.936 150.816 443.307 149.361C443.864 147.085 448.589 154.246 449.617 156.328C449.792 156.7 450.07 156.7 450.416 156.518C454.558 154.205 465.509 147.579 466.081 149.884C466.608 152 455.664 157.238 455.75 157.754C455.976 159.124 456.979 164.135 451.481 166.351C447.928 167.788 438.299 201.988 419.753 198.391C401.207 194.794 402.28 184.285 404.066 187.451Z" fill="white"/>
<path d="M422.489 199.252C421.525 199.25 420.562 199.154 419.616 198.966C405.881 196.29 402.63 189.845 402.54 187.588C402.5 186.597 403.004 186.345 403.223 186.282C403.498 186.204 404.029 186.207 404.545 187.08C405.473 187.299 410.752 185.02 425.047 174.978C435.178 167.866 443.63 161.162 444.202 160.093C444.996 157.071 444.009 154.183 443.289 152.071C442.858 150.801 442.546 149.881 442.709 149.205C442.741 148.977 442.847 148.765 443.01 148.603C443.174 148.44 443.387 148.336 443.615 148.307H443.708C445.742 148.307 449.67 155.2 450.104 155.98L451.916 154.951C459.711 150.497 464.277 148.206 465.955 148.923C466.126 148.993 466.278 149.102 466.398 149.242C466.519 149.382 466.605 149.549 466.649 149.728C467.039 151.302 464.277 153.251 458.69 156.525C457.784 157.056 456.771 157.639 456.374 157.936C457.064 162.35 455.49 165.36 451.689 166.901C450.947 167.205 449.291 170.468 447.706 173.62C442.791 183.368 434.799 199.252 422.489 199.252ZM403.829 188.067C403.947 188.505 404.119 188.926 404.341 189.322C405.336 191.152 408.832 195.633 419.846 197.782C432.902 200.328 441.492 183.267 446.622 173.074C448.942 168.467 450.108 166.232 451.233 165.78C456.14 163.797 455.394 159.398 455.152 157.954L455.13 157.839C455.034 157.26 455.383 157.056 458.078 155.478C459.663 154.55 461.634 153.392 463.178 152.29C465.565 150.582 465.472 150.022 465.472 150.014C465.472 150.007 464.696 149.643 460.427 151.703C457.792 152.98 454.737 154.725 452.509 155.998C451.819 156.392 451.203 156.741 450.69 157.03C450.547 157.122 450.386 157.183 450.218 157.208C450.05 157.234 449.878 157.224 449.714 157.179C449.568 157.131 449.433 157.052 449.319 156.949C449.206 156.845 449.115 156.718 449.053 156.577C448.01 154.45 444.948 150.1 443.856 149.561C443.827 149.932 444.127 150.827 444.417 151.681C445.159 153.819 446.247 157.049 445.349 160.43C444.914 162.067 432.096 171.455 427.193 174.934C421.769 178.78 408.743 187.785 404.946 188.264C404.562 188.342 404.163 188.272 403.829 188.067Z" fill="#434242"/>
<path d="M290.994 235.063C290.994 235.063 322.373 138.287 335.54 129.493C348.707 120.699 352.883 122.136 363.641 122.221C374.398 122.307 374.554 150.281 371.124 159.822C366.774 171.938 344.081 247.008 344.081 247.008L290.994 235.063Z" fill="#AFD0B4"/>
<path d="M368.559 252.521C368.559 252.521 379.717 176.129 384.268 160.646C387.127 150.92 389.807 130.403 395.431 132.185C407.562 136.034 414.545 179.377 414.545 179.377L438.874 159.454L453.477 180.268C453.477 180.268 429.623 219.988 411.53 219.81C403.553 219.732 394.046 198.057 394.046 198.057L386.993 256.667L368.559 252.521Z" fill="#AFD0B4"/>
<path d="M338.628 165.976L336.49 258.806L363.633 259.181L365.133 159.547L338.628 165.976Z" fill="#AFD0B4"/>
<path d="M364.271 259.838L335.825 259.466L337.989 165.962C337.99 165.876 338.008 165.791 338.042 165.713C338.077 165.634 338.126 165.563 338.188 165.504C338.25 165.445 338.323 165.399 338.403 165.368C338.483 165.338 338.568 165.324 338.654 165.327C338.739 165.329 338.823 165.347 338.901 165.382C338.979 165.416 339.05 165.466 339.109 165.527C339.168 165.589 339.214 165.662 339.245 165.741C339.276 165.821 339.291 165.906 339.289 165.991L337.165 258.167L363.005 258.538L364.49 159.554C364.493 159.384 364.563 159.221 364.684 159.101C364.806 158.981 364.969 158.913 365.14 158.912C365.225 158.914 365.309 158.932 365.388 158.966C365.466 159 365.537 159.049 365.596 159.11C365.655 159.172 365.702 159.244 365.733 159.323C365.765 159.403 365.78 159.488 365.778 159.573L364.271 259.838Z" fill="#434242"/>
<path d="M393.834 195.024H393.749C393.663 195.012 393.581 194.984 393.506 194.94C393.431 194.897 393.366 194.839 393.314 194.77C393.261 194.701 393.224 194.622 393.202 194.538C393.181 194.454 393.176 194.367 393.189 194.281L396.878 165.668C396.904 165.5 396.994 165.349 397.13 165.247C397.266 165.145 397.436 165.101 397.604 165.122C397.772 165.144 397.925 165.231 398.03 165.364C398.136 165.497 398.184 165.666 398.167 165.835L394.477 194.448C394.459 194.606 394.383 194.752 394.265 194.858C394.146 194.964 393.993 195.023 393.834 195.024Z" fill="#434242"/>
<path d="M187.649 358.439H121.339C117.067 358.434 112.972 356.734 109.954 353.712C106.935 350.69 105.239 346.593 105.239 342.321V206.045C105.239 201.77 106.937 197.671 109.96 194.648C112.983 191.625 117.083 189.927 121.357 189.927H173.955C176.071 189.927 178.167 190.344 180.122 191.154C182.077 191.964 183.854 193.151 185.35 194.648C186.847 196.145 188.034 197.922 188.843 199.877C189.653 201.833 190.069 203.929 190.069 206.045V329.362L203.759 342.321C203.759 346.595 202.062 350.693 199.041 353.716C196.02 356.738 191.922 358.437 187.649 358.439Z" fill="#AFD0B4"/>
<path d="M187.649 359.089H121.339C116.893 359.084 112.631 357.316 109.488 354.172C106.344 351.029 104.576 346.767 104.571 342.321V206.045C104.576 201.6 106.344 197.337 109.488 194.194C112.631 191.05 116.893 189.282 121.339 189.277H173.955C178.4 189.283 182.661 191.052 185.804 194.195C188.946 197.339 190.714 201.6 190.719 206.045V329.084L204.405 342.043V342.321C204.401 346.765 202.635 351.026 199.494 354.169C196.353 357.313 192.093 359.082 187.649 359.089ZM121.339 190.577C117.238 190.581 113.306 192.211 110.405 195.112C107.505 198.012 105.874 201.944 105.871 206.045V342.321C105.874 346.422 107.505 350.355 110.405 353.255C113.306 356.155 117.238 357.786 121.339 357.79H187.649C191.697 357.784 195.582 356.192 198.472 353.356C201.361 350.521 203.025 346.666 203.106 342.618L189.42 329.626V206.045C189.416 201.944 187.785 198.013 184.886 195.113C181.987 192.213 178.055 190.582 173.955 190.577H121.339Z" fill="#434242"/>
<path d="M151.269 334.258L123.621 334.73C127.281 289.906 116.315 223.087 116.204 222.416C116.193 222.329 116.165 222.245 116.121 222.169C116.077 222.093 116.019 222.027 115.948 221.974C115.878 221.921 115.798 221.884 115.713 221.863C115.628 221.842 115.539 221.839 115.453 221.853C115.366 221.867 115.284 221.899 115.21 221.946C115.136 221.993 115.072 222.055 115.023 222.127C114.973 222.199 114.939 222.281 114.922 222.367C114.905 222.453 114.905 222.541 114.923 222.627C115.034 223.299 125.996 290.073 122.295 334.734L116.4 334.834C116.228 334.834 116.063 334.902 115.941 335.024C115.819 335.146 115.751 335.311 115.751 335.483C115.751 335.656 115.819 335.821 115.941 335.943C116.063 336.065 116.228 336.133 116.4 336.133L151.269 335.565C151.441 335.565 151.606 335.497 151.728 335.375C151.85 335.253 151.918 335.088 151.918 334.915C151.918 334.743 151.85 334.578 151.728 334.456C151.606 334.334 151.441 334.266 151.269 334.266V334.258Z" fill="#434242"/>
<path d="M167.908 442.063H161.764V366.045C165.669 365.247 168.583 362.148 168.583 358.439H151.006C151.006 362.151 153.924 365.247 157.826 366.045V442.063H151.682C150.231 442.062 148.794 442.348 147.454 442.903C146.113 443.458 144.895 444.271 143.869 445.297C142.843 446.323 142.03 447.541 141.475 448.882C140.92 450.222 140.634 451.659 140.635 453.11V455.274H178.959V453.11C178.959 451.659 178.673 450.222 178.118 448.881C177.562 447.541 176.748 446.323 175.722 445.297C174.696 444.271 173.477 443.457 172.137 442.902C170.796 442.347 169.359 442.062 167.908 442.063Z" fill="#434242"/>
<path d="M286.929 411.159L297.594 437.872H279.055L269.916 420.822L286.929 411.159Z" fill="white"/>
<path d="M298.641 438.584H278.626L268.944 420.543L287.279 410.131L298.641 438.584ZM279.472 437.155H296.548L286.577 412.187L270.882 421.096L279.472 437.155Z" fill="#434242"/>
<path d="M298.611 437.007C298.611 437.007 325.409 446.083 326.333 453.559H278.283V437.007H298.611Z" fill="#009917"/>
<path d="M226.559 423.327L224.391 438.087H206.844L208.7 422.021L226.559 423.327Z" fill="white"/>
<path d="M225.01 438.8H206.037L208.068 421.256L227.371 422.67L225.01 438.8ZM207.644 437.37H223.77L225.737 424.007L209.33 422.8L207.644 437.37Z" fill="#434242"/>
<path d="M225.408 437.222C225.408 437.222 252.203 446.298 253.127 453.774H205.096V437.222H225.408Z" fill="#009917"/>
<path d="M254.875 450.935V455.233H203.826V450.318L254.875 450.935Z" fill="#434242"/>
<path d="M276.784 450.433V455.018H327.833V450.103L276.784 450.433Z" fill="#434242"/>
<path d="M227.209 443.28C227.052 443.281 226.899 443.226 226.779 443.124C226.658 443.022 226.579 442.88 226.555 442.724C226.53 442.569 226.563 442.409 226.646 442.276C226.73 442.142 226.858 442.043 227.009 441.996L236.289 439.026C236.455 438.973 236.636 438.988 236.791 439.068C236.947 439.148 237.064 439.287 237.117 439.453C237.17 439.619 237.155 439.8 237.075 439.955C236.995 440.11 236.856 440.228 236.69 440.281L227.41 443.25C227.345 443.271 227.277 443.281 227.209 443.28Z" fill="#434242"/>
<path d="M231.841 446.235C231.686 446.234 231.536 446.177 231.418 446.075C231.3 445.973 231.222 445.833 231.198 445.68C231.174 445.526 231.206 445.369 231.287 445.236C231.368 445.103 231.493 445.003 231.641 444.954L240.921 441.985C241.084 441.941 241.258 441.963 241.405 442.044C241.553 442.125 241.664 442.26 241.715 442.421C241.766 442.582 241.754 442.756 241.68 442.908C241.606 443.059 241.476 443.177 241.318 443.236L232.056 446.205C231.987 446.228 231.914 446.238 231.841 446.235Z" fill="#434242"/>
<path d="M238.259 449.194C238.101 449.195 237.949 449.139 237.828 449.037C237.708 448.935 237.629 448.794 237.605 448.638C237.58 448.482 237.613 448.323 237.696 448.189C237.779 448.055 237.908 447.956 238.058 447.909L247.339 444.939C247.502 444.896 247.675 444.918 247.823 444.999C247.971 445.08 248.082 445.215 248.133 445.376C248.184 445.537 248.171 445.711 248.098 445.863C248.024 446.014 247.894 446.132 247.736 446.19L238.456 449.16C238.392 449.18 238.326 449.191 238.259 449.194Z" fill="#434242"/>
<path d="M299.097 442.059C298.939 442.06 298.786 442.005 298.666 441.903C298.546 441.801 298.467 441.659 298.442 441.503C298.418 441.347 298.451 441.188 298.534 441.054C298.617 440.921 298.746 440.821 298.896 440.774L308.158 437.805C308.325 437.752 308.505 437.768 308.66 437.848C308.815 437.928 308.932 438.066 308.986 438.232C309.012 438.314 309.022 438.4 309.015 438.486C309.008 438.572 308.984 438.656 308.944 438.733C308.905 438.809 308.85 438.877 308.784 438.933C308.718 438.988 308.641 439.03 308.559 439.056L299.279 442.025C299.22 442.045 299.159 442.057 299.097 442.059Z" fill="#434242"/>
<path d="M303.73 445.014C303.572 445.015 303.419 444.959 303.299 444.857C303.179 444.755 303.1 444.614 303.075 444.458C303.051 444.302 303.083 444.143 303.167 444.009C303.25 443.875 303.379 443.776 303.529 443.729L312.81 440.76C312.892 440.731 312.98 440.719 313.068 440.724C313.155 440.73 313.241 440.753 313.319 440.792C313.398 440.831 313.468 440.885 313.525 440.952C313.582 441.019 313.625 441.096 313.652 441.179C313.679 441.263 313.688 441.351 313.681 441.438C313.673 441.526 313.648 441.611 313.606 441.688C313.565 441.765 313.509 441.834 313.441 441.889C313.373 441.945 313.295 441.986 313.21 442.011L303.93 444.98C303.865 445.001 303.798 445.012 303.73 445.014Z" fill="#434242"/>
<path d="M310.149 447.972C309.991 447.974 309.838 447.918 309.718 447.816C309.598 447.714 309.518 447.572 309.494 447.417C309.47 447.261 309.502 447.102 309.586 446.968C309.669 446.834 309.798 446.735 309.948 446.688L319.21 443.718C319.376 443.665 319.557 443.68 319.712 443.76C319.867 443.84 319.985 443.979 320.038 444.145C320.091 444.311 320.076 444.492 319.996 444.647C319.916 444.803 319.777 444.92 319.611 444.973L310.33 447.943C310.271 447.96 310.21 447.97 310.149 447.972Z" fill="#434242"/>
<path d="M206.881 300.047C206.881 300.047 265.774 297.449 267.259 311.833C268.743 326.218 232.643 428.06 232.643 428.06L204.353 424.04C204.353 424.04 224.717 349.371 223.834 344.014C220.345 322.825 138.956 297.089 138.956 297.089L206.881 300.047Z" fill="#292929"/>
<path d="M128.298 288.818C128.298 288.818 121.219 335.287 155.063 338.149C189.215 341.04 222.022 340.525 229.462 347.823C231.637 349.961 269.991 428.06 269.991 428.06L296.785 417.496C296.785 417.496 251.968 320.858 248.527 316.21C242.335 307.839 237.643 303.325 206.888 300.047C179.11 297.089 128.298 288.818 128.298 288.818Z" fill="#434242"/>
<path d="M209.056 164.295C209.056 164.295 202.905 182.432 204.023 184.797C205.14 187.161 213.433 192.774 213.433 192.774L188.369 231.841L156.24 222.308L161.326 190.547C161.326 190.547 178.921 182.165 180.362 180.008C182.355 177.038 186.338 159.744 186.338 159.744L209.056 164.295Z" fill="white"/>
<path d="M188.617 232.513L188.205 232.39L155.594 222.716L160.791 190.161L161.062 190.031C167.81 186.816 178.88 181.166 179.871 179.693C181.783 176.827 185.725 159.788 185.762 159.617C185.8 159.474 185.893 159.351 186.02 159.274C186.147 159.198 186.298 159.173 186.443 159.207C186.588 159.24 186.714 159.328 186.794 159.453C186.875 159.577 186.904 159.728 186.876 159.874C186.713 160.583 182.848 177.291 180.818 180.327C179.389 182.466 164.577 189.608 161.823 190.933L156.863 221.903L188.101 231.184L212.634 192.949C210.745 191.649 204.516 187.251 203.484 185.06C202.33 182.61 207.456 167.194 208.495 164.131C208.52 164.06 208.558 163.995 208.608 163.938C208.657 163.882 208.718 163.836 208.785 163.803C208.853 163.769 208.926 163.75 209.001 163.745C209.076 163.741 209.152 163.751 209.223 163.775C209.294 163.799 209.36 163.838 209.416 163.887C209.473 163.937 209.519 163.997 209.552 164.065C209.585 164.133 209.604 164.206 209.609 164.281C209.614 164.356 209.604 164.431 209.579 164.503C207.248 171.407 203.796 182.996 204.538 184.556C205.399 186.378 211.484 190.762 213.755 192.299L214.216 192.611L188.617 232.513Z" fill="#434242"/>
<path d="M211.559 126.494C215.557 127.771 225.312 130.756 223.645 137.593C221.745 145.389 217.888 155.122 215.761 160.237C215.31 161.236 214.528 162.047 213.547 162.535C212.566 163.022 211.446 163.154 210.378 162.91L185.136 157.553C182.823 157.063 181.271 155.029 181.535 152.824C182.411 145.4 184.412 129.731 185.893 127.619C190.934 120.414 205.23 124.475 211.559 126.494Z" fill="#434242"/>
<path d="M185.849 163.047C184.806 161.436 185.533 156.095 186.833 150.1C186.851 150.015 186.846 149.927 186.819 149.844C186.791 149.762 186.742 149.689 186.677 149.632C185.244 148.359 183.336 145.879 184.115 142.95C184.798 140.4 186.654 141.357 188.013 142.516C188.07 142.562 188.138 142.594 188.21 142.607C188.283 142.621 188.357 142.617 188.427 142.595C188.498 142.573 188.561 142.534 188.613 142.481C188.664 142.428 188.702 142.364 188.722 142.293C190.597 135.128 192.557 128.929 192.557 128.929L222.543 135.266C222.543 135.266 220.921 141.666 218.879 148.793C218.787 149.112 213.348 165.995 212.25 167.394C211.548 168.207 210.616 168.787 209.577 169.057C209.577 169.057 207.294 170.115 196.395 167.803L185.849 163.047Z" fill="white"/>
<path d="M207.323 169.874C205.356 169.874 201.971 169.573 196.28 168.367C196.198 168.361 196.118 168.337 196.046 168.298C195.973 168.258 195.91 168.204 195.861 168.138C195.812 168.072 195.777 167.996 195.76 167.915C195.742 167.835 195.742 167.752 195.76 167.671C195.777 167.591 195.812 167.515 195.861 167.449C195.91 167.383 195.973 167.328 196.045 167.289C196.117 167.249 196.197 167.225 196.279 167.219C196.361 167.213 196.444 167.225 196.521 167.253C206.874 169.451 209.335 168.549 209.358 168.538H209.413C210.342 168.295 211.175 167.778 211.804 167.053C212.78 165.809 218.137 149.313 218.334 148.644C220 142.831 221.4 137.449 221.845 135.715L192.946 129.583C192.445 131.197 190.823 136.521 189.275 142.434C189.23 142.599 189.145 142.75 189.026 142.873C188.908 142.997 188.76 143.088 188.597 143.139C188.434 143.19 188.26 143.199 188.093 143.165C187.925 143.132 187.769 143.056 187.638 142.946C186.71 142.159 185.904 141.792 185.433 141.94C185.021 142.066 184.791 142.638 184.668 143.095C183.885 146.009 186.075 148.344 187.051 149.212C187.194 149.337 187.3 149.497 187.359 149.677C187.419 149.856 187.429 150.048 187.389 150.233C185.392 159.462 185.867 162.034 186.328 162.747C186.373 162.81 186.406 162.882 186.423 162.958C186.44 163.034 186.442 163.113 186.427 163.19C186.413 163.267 186.383 163.34 186.34 163.405C186.296 163.47 186.24 163.525 186.174 163.568C186.108 163.61 186.035 163.639 185.958 163.652C185.881 163.665 185.802 163.662 185.726 163.644C185.65 163.625 185.578 163.591 185.516 163.544C185.454 163.497 185.401 163.438 185.362 163.37C184.991 162.799 183.878 161.065 186.257 150.04C185.103 149.004 182.619 146.295 183.558 142.798C183.844 141.729 184.36 141.068 185.091 140.841C185.949 140.574 186.999 140.942 188.217 141.933C190.073 134.924 191.985 128.799 192.007 128.74L192.163 128.242L223.252 134.839L223.107 135.418C223.107 135.481 221.459 141.907 219.44 148.964C219.392 149.123 213.927 166.206 212.71 167.762C211.944 168.663 210.923 169.31 209.781 169.618C209.588 169.677 208.927 169.874 207.323 169.874Z" fill="#434242"/>
<path d="M199.024 148.074C198.928 148.074 198.833 148.061 198.741 148.033C198.618 147.996 198.504 147.935 198.404 147.854C198.305 147.772 198.223 147.672 198.162 147.559C198.101 147.446 198.063 147.322 198.051 147.194C198.038 147.067 198.051 146.938 198.088 146.815L198.262 146.247C198.286 146.111 198.339 145.981 198.416 145.867C198.494 145.753 198.595 145.657 198.712 145.584C198.83 145.512 198.961 145.466 199.098 145.448C199.235 145.43 199.374 145.441 199.506 145.481C199.638 145.521 199.761 145.589 199.865 145.679C199.969 145.77 200.053 145.881 200.111 146.007C200.169 146.132 200.199 146.268 200.201 146.406C200.202 146.544 200.174 146.681 200.119 146.807L199.948 147.379C199.888 147.578 199.766 147.753 199.6 147.878C199.433 148.003 199.232 148.071 199.024 148.074Z" fill="#434242"/>
<path d="M212.831 151.043C212.749 151.043 212.668 151.032 212.59 151.01C212.339 150.946 212.124 150.785 211.992 150.563C211.86 150.341 211.821 150.076 211.884 149.825L212.059 149.142C212.123 148.891 212.284 148.675 212.507 148.543C212.729 148.411 212.996 148.372 213.247 148.436C213.498 148.5 213.713 148.662 213.846 148.884C213.978 149.107 214.016 149.374 213.952 149.625L213.778 150.304C213.725 150.515 213.603 150.703 213.431 150.837C213.26 150.97 213.049 151.043 212.831 151.043Z" fill="#434242"/>
<path d="M202.352 144.019C202.19 144.018 202.032 143.968 201.899 143.874C200.528 143.005 198.897 142.638 197.285 142.835C197.08 142.865 196.872 142.812 196.706 142.689C196.54 142.565 196.43 142.381 196.4 142.176C196.37 141.971 196.422 141.763 196.546 141.597C196.67 141.431 196.854 141.321 197.059 141.291C199.069 141.031 201.106 141.496 202.805 142.601C202.939 142.698 203.039 142.834 203.09 142.991C203.142 143.148 203.143 143.317 203.092 143.474C203.042 143.631 202.944 143.769 202.811 143.866C202.678 143.964 202.517 144.018 202.352 144.019Z" fill="#434242"/>
<path d="M199.812 157.464C199.177 158.018 201.052 160.768 203.896 161.247C208.528 162.034 210.663 159.391 209.505 159.391C209.048 159.391 207.17 159.911 204.408 159.391C201.423 158.812 200.235 157.093 199.812 157.464Z" fill="#434242"/>
<path d="M205.515 156.377H205.43C205.255 156.377 205.088 156.308 204.965 156.184C204.842 156.061 204.772 155.894 204.772 155.72C204.772 155.545 204.842 155.378 204.965 155.255C205.088 155.132 205.255 155.063 205.43 155.063H205.5C206.562 155.063 207.545 154.81 207.66 154.591C207.894 154.086 207.909 154.053 207.415 150.979C207.308 150.293 207.174 149.461 207.018 148.451V148.396C207.018 148.162 206.874 146.083 207.493 144.806C207.716 144.342 208.236 144.026 209.015 143.871C211.031 143.466 214.491 144.101 216.236 145.649C216.3 145.706 216.353 145.776 216.39 145.854C216.428 145.932 216.45 146.016 216.455 146.103C216.46 146.189 216.448 146.275 216.42 146.357C216.391 146.439 216.347 146.514 216.289 146.579C216.232 146.643 216.162 146.696 216.084 146.733C216.006 146.771 215.922 146.793 215.836 146.798C215.749 146.803 215.663 146.791 215.581 146.763C215.499 146.734 215.424 146.69 215.359 146.632C214.086 145.519 211.465 144.951 209.769 145.092C209.027 145.155 208.715 145.333 208.655 145.393C208.284 146.183 208.284 147.716 208.314 148.277C208.47 149.275 208.6 150.096 208.711 150.771C209.223 153.979 209.264 154.242 208.848 155.144C208.344 156.269 206.272 156.377 205.515 156.377Z" fill="#434242"/>
<path d="M189.36 127.786C189.36 127.786 189.119 120.221 194.186 121.13C199.253 122.039 200.125 117.01 204.87 117.9C209.614 118.791 206.956 120.068 211.826 121.542C216.696 123.016 219.302 120.384 220.457 124.33C221.611 128.276 225.52 127.511 227.087 130.225C228.653 132.938 227.929 135.956 225.457 136.81C222.985 137.664 226.571 139.962 224.492 142.007C222.413 144.052 214.224 143.336 213.021 140.062C211.819 136.788 211.21 134.572 208.17 134.23C205.129 133.889 201.332 135.24 199.298 134.531C197.263 133.822 194.58 131.435 193.418 131.932C192.256 132.43 190.964 134.275 189.854 134.056C188.744 133.837 185.5 130.006 189.36 127.786Z" fill="#434242"/>
<path d="M194.127 128.888C194.127 128.888 192.768 132.526 191.294 134.085C189.821 135.644 187.816 136.684 187.849 139.282C187.883 141.881 181.594 137.89 183.339 135.199C186.936 129.631 181.513 127.964 185.076 125.176C187.203 123.524 190.942 123.806 190.942 123.806L194.127 128.888Z" fill="#434242"/>
<path d="M194.127 128.888C194.127 128.888 192.768 132.526 191.294 134.085C189.821 135.644 187.816 136.684 187.849 139.282C187.883 141.881 181.594 137.89 183.339 135.199C186.936 129.631 181.513 127.964 185.076 125.176C187.203 123.524 190.942 123.806 190.942 123.806L194.127 128.888Z" fill="#434242"/>
<path d="M171 179.496C164.47 176.129 123.276 204.59 111.639 242.116C98.5721 284.234 146.459 272.407 146.459 272.407L139.064 225.411L127.141 292.916L203.911 300.047L211.981 249.896C211.981 249.896 208.41 272.084 236.934 272.563C249.496 272.771 267.277 272.563 267.277 272.563L269.315 253.378L237.313 248.824C237.313 248.824 234.414 212.656 221.722 199.527C215.742 193.331 210.82 189.686 208.236 189.055C200.474 187.161 204.164 196.605 171 179.496Z" fill="#009917"/>
<path d="M216.73 264.76L231.95 263.145L236.891 264.433L237.611 266.267C237.611 266.267 229.485 265.788 224.681 267.251C219.878 268.713 216.236 268.246 216.236 268.246L215.973 267.132L216.73 264.76Z" fill="white"/>
<path d="M214.201 269.727C207.449 269.148 178.517 273.068 178.517 273.068L180.955 257.44C180.955 257.44 212.509 262.811 214.903 262.124C219.387 260.836 225.327 260.053 230.628 259.845C237.632 259.57 244.173 261.248 244.069 263.153C244.013 264.181 234.574 263.364 232.157 264.333C225.33 267.065 219.012 270.142 214.201 269.727Z" fill="white"/>
<path d="M177.578 273.981L180.303 256.534L181.086 256.667C193.165 258.724 212.962 261.82 214.688 261.371C218.942 260.149 224.889 259.285 230.595 259.062C236.631 258.828 242.496 259.99 244.241 261.764C244.441 261.945 244.6 262.167 244.705 262.415C244.811 262.663 244.862 262.931 244.853 263.201C244.783 264.459 243.038 264.485 238.814 264.556C236.445 264.597 233.494 264.645 232.451 265.064C231.408 265.484 230.276 265.952 229.21 266.393C223.642 268.702 218.367 270.885 214.135 270.521C207.546 269.957 178.911 273.81 178.621 273.862L177.578 273.981ZM181.609 258.353L179.453 272.158C184.776 271.453 208.159 268.446 214.269 268.962C218.118 269.292 223.215 267.18 228.609 264.946C229.678 264.504 230.766 264.051 231.864 263.609C233.178 263.086 236.029 263.038 238.788 262.989C240.239 262.967 242.128 262.934 243.045 262.796C241.679 261.56 236.464 260.409 230.658 260.636C225.067 260.855 219.262 261.694 215.123 262.885C212.791 263.55 188.332 259.466 181.609 258.353Z" fill="#434242"/>
<path d="M218.233 265.643L233.991 263.323L233.248 263.557C233.248 263.557 248.204 266.037 226.195 267.856C221.143 268.272 217.06 267.793 217.319 268.316L217.468 268.027L218.233 265.643Z" fill="white"/>
<path d="M220.366 269.66C220.171 269.654 219.984 269.576 219.843 269.441C219.702 269.305 219.617 269.122 219.603 268.927C219.59 268.732 219.65 268.539 219.771 268.386C219.892 268.232 220.066 268.129 220.258 268.097C222.074 267.837 223.718 267.455 225.166 267.121C226.937 266.709 228.462 266.352 229.799 266.338C231.417 266.315 236.236 266.256 237.074 265.684V265.643C236.703 265.153 233.589 263.954 230.478 263.932C228.162 263.953 225.865 264.356 223.681 265.127C223.484 265.202 223.266 265.195 223.074 265.108C222.882 265.021 222.733 264.862 222.658 264.665C222.584 264.468 222.591 264.25 222.678 264.058C222.764 263.866 222.924 263.717 223.121 263.643C225.449 262.816 227.896 262.377 230.367 262.343H230.489C233.485 262.366 237.706 263.498 238.452 264.875C238.602 265.102 238.686 265.367 238.696 265.639C238.706 265.912 238.641 266.182 238.507 266.419C237.884 267.485 235.939 267.815 229.836 267.904C228.67 267.904 227.237 268.275 225.541 268.647C224.056 268.992 222.382 269.389 220.496 269.645L220.366 269.66Z" fill="#434242"/>
<path d="M164.273 180.973L175.057 175.613L192.712 187.358L185.039 193.468L164.273 180.973Z" fill="#009917"/>
<path d="M213.915 191.946L208.822 183.746L192.711 187.358L196.891 195.284L213.915 191.946Z" fill="#009917"/>
<path d="M215.182 192.499L209.198 182.848L192.865 186.512L175.109 174.7L162.637 180.899L185.099 194.415L191.899 188.999C191.157 201.249 186.387 276.516 180.277 296.28C180.249 296.369 180.239 296.462 180.248 296.555C180.257 296.648 180.283 296.738 180.327 296.82C180.37 296.902 180.43 296.975 180.501 297.035C180.573 297.094 180.656 297.139 180.745 297.167C180.812 297.188 180.882 297.198 180.952 297.196C181.103 297.197 181.251 297.149 181.372 297.059C181.494 296.97 181.583 296.843 181.628 296.699C187.649 277.285 192.345 204.939 193.258 190.075L196.473 196.167L215.182 192.499ZM184.976 192.499L165.907 181.025L174.998 176.508L191.38 187.403L184.976 192.499ZM208.437 184.633L212.635 191.393L197.301 194.4L193.871 187.9L208.437 184.633Z" fill="#434242"/>
<path d="M138.21 244.863L192.077 254.514L185.803 273.075C185.803 273.075 148.496 274.155 140.515 273.075C125.667 271.067 109.753 257.97 109.753 257.97L138.21 244.863Z" fill="#009917"/>
<path d="M186.134 272.83C186.019 272.828 185.905 272.799 185.803 272.745C185.701 272.692 185.613 272.615 185.545 272.521C185.478 272.428 185.433 272.32 185.415 272.206C185.397 272.092 185.405 271.975 185.44 271.865L191.105 255.112L141.618 247.25L155.695 223.544C155.732 223.442 155.792 223.35 155.869 223.273C155.946 223.197 156.04 223.138 156.142 223.102C156.244 223.066 156.354 223.052 156.462 223.062C156.57 223.073 156.675 223.107 156.768 223.162C156.862 223.217 156.942 223.292 157.004 223.382C157.065 223.472 157.106 223.574 157.124 223.681C157.141 223.788 157.135 223.898 157.106 224.003C157.076 224.107 157.024 224.204 156.953 224.287L143.983 246.136L193.057 253.932L186.836 272.325C186.786 272.472 186.692 272.6 186.566 272.69C186.44 272.781 186.289 272.83 186.134 272.83Z" fill="#434242"/>
<path d="M586.161 279.011L141.819 278.413C140.637 278.413 139.504 277.944 138.669 277.108C137.834 276.273 137.364 275.14 137.364 273.959V273.439C137.364 272.258 137.834 271.124 138.669 270.289C139.504 269.454 140.637 268.984 141.819 268.984L586.161 269.586C587.343 269.586 588.476 270.055 589.311 270.89C590.146 271.726 590.616 272.859 590.616 274.04V274.556C590.616 275.738 590.146 276.871 589.311 277.706C588.476 278.542 587.343 279.011 586.161 279.011Z" fill="#F7F7F7"/>
<path d="M586.161 279.568L141.819 278.97C140.49 278.969 139.216 278.441 138.276 277.501C137.337 276.562 136.809 275.287 136.808 273.959V273.439C136.809 272.11 137.337 270.836 138.276 269.896C139.216 268.957 140.49 268.429 141.819 268.428L586.161 269.029C587.49 269.03 588.764 269.558 589.704 270.498C590.643 271.437 591.172 272.711 591.173 274.04V274.556C591.172 275.885 590.643 277.159 589.704 278.099C588.764 279.038 587.49 279.567 586.161 279.568ZM141.819 269.545C140.786 269.546 139.795 269.957 139.064 270.688C138.333 271.418 137.922 272.409 137.921 273.443V273.962C137.922 274.996 138.333 275.987 139.064 276.717C139.795 277.448 140.786 277.859 141.819 277.86L586.161 278.458C587.195 278.457 588.186 278.046 588.916 277.315C589.647 276.584 590.058 275.593 590.059 274.56V274.044C590.058 273.011 589.647 272.02 588.916 271.289C588.186 270.558 587.195 270.147 586.161 270.146L141.819 269.545Z" fill="#434242"/>
<path d="M126.658 455.274H117.229L160.702 278.484H170.135L126.658 455.274Z" fill="#F7F7F7"/>
<path d="M127.071 455.797H116.562L116.721 455.148L160.294 277.96H170.803L170.644 278.61L127.071 455.797ZM117.898 454.751H126.25L169.459 279.007H161.107L117.898 454.751Z" fill="#434242"/>
<path d="M584.586 455.274H594.015L568.012 279.011H558.579L584.586 455.274Z" fill="#F7F7F7"/>
<path d="M594.662 455.838H584.104L584.034 455.363L557.938 278.461H568.491L568.562 278.94L594.662 455.838ZM585.066 454.725H593.385L567.545 279.575H559.233L585.066 454.725Z" fill="#434242"/>
<path d="M302.592 70.7952C306.221 51.3094 293.366 32.571 273.88 28.942C254.395 25.3129 235.656 38.1673 232.027 57.6532C228.398 77.139 241.252 95.8773 260.738 99.5064C280.224 103.135 298.962 90.2811 302.592 70.7952Z" fill="#AFD0B4"/>
<path d="M267.348 64.8503L245.885 54.9278C245.816 54.899 245.753 54.8565 245.701 54.8029C245.648 54.7493 245.607 54.6856 245.58 54.6157C245.553 54.5459 245.54 54.4712 245.542 54.3963C245.545 54.3214 245.562 54.2477 245.594 54.1796C245.625 54.1116 245.67 54.0507 245.726 54.0004C245.781 53.9502 245.847 53.9117 245.917 53.8873C245.988 53.8628 246.063 53.853 246.138 53.8583C246.213 53.8636 246.286 53.8839 246.353 53.9181L267.259 63.5696L291.462 47.8933C291.587 47.813 291.737 47.7854 291.882 47.8164C292.026 47.8473 292.152 47.9344 292.233 48.0585C292.313 48.1825 292.341 48.3334 292.31 48.4778C292.279 48.6223 292.192 48.7485 292.068 48.8287L267.348 64.8503Z" fill="#434242"/>
<path d="M341.324 211.58L328.372 264.029H252.719L268.035 211.58H341.324Z" fill="#F7F7F7"/>
<path d="M328.806 264.585H251.965L267.615 211.023H342.036L341.865 211.713L328.806 264.585ZM253.45 263.472H327.934L340.614 212.137H268.45L253.45 263.472Z" fill="#434242"/>
<path d="M230.041 268.984H328.301V264.029H230.041V268.984Z" fill="#AFD0B4"/>
<path d="M328.857 269.541H229.487V263.472H328.857V269.541ZM230.601 268.427H327.744V264.585H230.601V268.427Z" fill="#434242"/>
<path d="M296.57 247.766C296.414 247.766 296.259 247.766 296.099 247.744C295.196 247.651 294.326 247.355 293.554 246.877C292.783 246.399 292.13 245.752 291.644 244.985C290.535 243.298 290.04 241.281 290.241 239.272C290.612 234.911 293.849 231.607 297.465 231.922C301.081 232.238 303.709 236.032 303.334 240.394C302.97 244.566 299.989 247.766 296.57 247.766ZM296.986 233.018C294.143 233.018 291.652 235.776 291.344 239.369C291.163 241.122 291.592 242.884 292.558 244.358C292.953 244.988 293.485 245.52 294.115 245.915C294.745 246.309 295.456 246.556 296.195 246.637C299.191 246.886 301.894 244.039 302.217 240.301C302.539 236.563 300.36 233.288 297.361 233.032C297.235 233.021 297.112 233.018 296.986 233.018Z" fill="#434242"/>
<path d="M429.378 268.984C425.046 268.984 420.892 267.263 417.829 264.2C414.766 261.137 413.045 256.983 413.045 252.651V242.74H445.712V252.651C445.712 256.983 443.991 261.137 440.928 264.2C437.865 267.263 433.71 268.984 429.378 268.984Z" fill="#009917"/>
<path d="M442.182 263.364C441.945 263.364 441.707 263.364 441.466 263.342L441.544 262.228C445.107 262.473 448.348 260.691 450.453 257.358C452.309 254.418 452.81 250.824 451.67 248.82C451.507 248.493 451.268 248.209 450.974 247.991C450.68 247.774 450.339 247.629 449.978 247.569C447.71 247.198 444.254 249.703 443.118 250.706L442.375 249.87C442.557 249.707 446.9 245.928 450.171 246.47C450.695 246.557 451.192 246.766 451.621 247.078C452.051 247.391 452.402 247.799 452.647 248.271C453.998 250.654 453.486 254.633 451.403 257.952C449.209 261.419 445.883 263.364 442.182 263.364Z" fill="#009917"/>
<path d="M423.934 264.251C423.853 264.25 423.775 264.229 423.704 264.192C416.342 260.131 417.23 247.695 417.274 247.168C417.285 247.043 417.345 246.928 417.44 246.846C417.535 246.764 417.658 246.723 417.783 246.73C417.845 246.734 417.906 246.751 417.963 246.779C418.019 246.807 418.069 246.846 418.109 246.894C418.15 246.942 418.181 246.997 418.2 247.057C418.219 247.117 418.226 247.18 418.221 247.242C418.221 247.365 417.341 259.593 424.16 263.357C424.251 263.409 424.323 263.489 424.364 263.586C424.405 263.683 424.413 263.79 424.386 263.892C424.36 263.993 424.301 264.084 424.219 264.149C424.136 264.214 424.035 264.25 423.93 264.251H423.934Z" fill="white"/>
<path d="M421.26 240.13C421.152 240.125 421.047 240.088 420.959 240.025C420.872 239.962 420.804 239.874 420.765 239.773C420.725 239.672 420.716 239.562 420.738 239.456C420.76 239.35 420.812 239.253 420.889 239.176C423.777 236.31 424.601 235.338 424.56 232.063C424.515 229.116 423.153 227.865 421.716 226.54C420.603 225.508 419.422 224.435 418.832 222.572C417.429 218.162 422.882 214.056 423.112 213.881C423.171 213.838 423.238 213.806 423.309 213.788C423.38 213.771 423.453 213.767 423.526 213.778C423.598 213.788 423.668 213.813 423.73 213.851C423.793 213.888 423.848 213.938 423.892 213.997C423.935 214.055 423.967 214.122 423.985 214.193C424.003 214.264 424.006 214.338 423.996 214.41C423.985 214.482 423.96 214.552 423.922 214.615C423.885 214.678 423.835 214.732 423.777 214.776C423.728 214.813 418.732 218.581 419.894 222.234C420.395 223.815 421.401 224.743 422.47 225.723C424.018 227.145 425.622 228.619 425.673 232.034C425.729 235.746 424.69 236.963 421.672 239.955C421.619 240.012 421.555 240.056 421.484 240.086C421.413 240.116 421.337 240.131 421.26 240.13Z" fill="#434242"/>
<path d="M435.775 240.13C435.702 240.13 435.629 240.115 435.562 240.086C435.494 240.058 435.433 240.016 435.382 239.963C435.277 239.858 435.219 239.717 435.219 239.569C435.219 239.422 435.277 239.28 435.382 239.176C438.27 236.31 439.094 235.338 439.053 232.063C439.008 229.116 437.646 227.865 436.21 226.54C435.096 225.508 433.915 224.435 433.325 222.571C431.922 218.161 437.375 214.056 437.605 213.881C437.724 213.794 437.873 213.757 438.019 213.779C438.165 213.8 438.296 213.879 438.385 213.996C438.429 214.055 438.461 214.122 438.479 214.193C438.497 214.264 438.501 214.338 438.49 214.41C438.48 214.483 438.455 214.553 438.417 214.615C438.379 214.678 438.329 214.733 438.27 214.776C438.222 214.813 433.225 218.581 434.387 222.234C434.888 223.815 435.894 224.743 436.963 225.723C438.511 227.145 440.115 228.619 440.167 232.034C440.222 235.746 439.183 236.963 436.165 239.955C436.115 240.009 436.055 240.052 435.988 240.082C435.921 240.112 435.849 240.128 435.775 240.13Z" fill="#434242"/>
<path d="M428.016 237.194C427.906 237.193 427.799 237.161 427.707 237.1C427.616 237.038 427.545 236.951 427.502 236.85C427.46 236.748 427.449 236.636 427.471 236.528C427.492 236.42 427.545 236.321 427.623 236.243C430.515 233.374 431.335 232.401 431.294 229.127C431.25 226.18 429.891 224.929 428.451 223.607C427.337 222.571 426.16 221.499 425.566 219.639C424.163 215.225 429.616 211.101 429.85 210.949C429.908 210.9 429.976 210.863 430.048 210.841C430.121 210.818 430.198 210.811 430.273 210.82C430.349 210.829 430.422 210.852 430.488 210.89C430.554 210.928 430.611 210.979 430.657 211.04C430.702 211.101 430.735 211.171 430.752 211.245C430.77 211.319 430.772 211.396 430.759 211.471C430.745 211.546 430.717 211.617 430.675 211.681C430.633 211.744 430.578 211.798 430.515 211.84C430.463 211.881 425.466 215.645 426.628 219.301C427.133 220.879 428.139 221.807 429.204 222.787C430.756 224.212 432.356 225.682 432.408 229.097C432.467 232.81 431.424 234.023 428.41 237.015C428.359 237.07 428.299 237.113 428.231 237.144C428.163 237.174 428.091 237.191 428.016 237.194Z" fill="#434242"/>
<path d="M453.745 422.437L455.642 440.838H471.745L474.199 421.137L453.745 422.437Z" fill="white"/>
<path d="M472.276 441.439H455.1L453.084 421.876L474.885 420.491L472.276 441.439ZM456.184 440.247H471.214L473.512 421.798L454.409 423.012L456.184 440.247Z" fill="#434242"/>
<path d="M454.759 440.136C454.759 440.136 431.483 447.523 430.682 453.607H472.413V440.136H454.759Z" fill="#009917"/>
<path d="M505.748 420.443L501.906 440.459H518.009L520.898 421.059L505.748 420.443Z" fill="white"/>
<path d="M518.529 441.064H501.179L505.262 419.819L521.595 420.488L518.529 441.064ZM502.638 439.858H517.486L520.196 421.635L506.235 421.063L502.638 439.858Z" fill="#434242"/>
<path d="M501.023 439.757C501.023 439.757 477.752 447.144 476.946 453.232H518.678V439.757H501.023Z" fill="#009917"/>
<path d="M474.99 451.666V455.233H519.332V451.154L474.99 451.666Z" fill="#434242"/>
<path d="M473.717 451.001V455.233H429.379V450.693L473.717 451.001Z" fill="#434242"/>
<path d="M510.118 451.707C510.045 451.707 509.974 451.692 509.907 451.664C509.84 451.637 509.779 451.596 509.728 451.544C509.677 451.493 509.637 451.432 509.609 451.365C509.582 451.298 509.568 451.226 509.568 451.154V443.069C509.568 442.921 509.627 442.779 509.731 442.675C509.836 442.57 509.978 442.512 510.125 442.512C510.273 442.512 510.415 442.57 510.519 442.675C510.623 442.779 510.682 442.921 510.682 443.069V451.154C510.683 451.227 510.668 451.3 510.64 451.368C510.612 451.437 510.57 451.498 510.517 451.55C510.465 451.601 510.402 451.642 510.333 451.669C510.265 451.696 510.191 451.709 510.118 451.707Z" fill="#434242"/>
<path d="M463.854 452.085C463.707 452.085 463.567 452.027 463.463 451.923C463.359 451.82 463.301 451.679 463.301 451.532V443.447C463.301 443.3 463.359 443.158 463.464 443.053C463.568 442.949 463.71 442.89 463.858 442.89C464.005 442.89 464.147 442.949 464.251 443.053C464.356 443.158 464.414 443.3 464.414 443.447V451.532C464.414 451.606 464.4 451.678 464.372 451.746C464.343 451.813 464.302 451.875 464.25 451.926C464.198 451.977 464.136 452.018 464.068 452.045C464 452.073 463.927 452.086 463.854 452.085Z" fill="#434242"/>
<path d="M528.051 292.504L488.595 329.663L480.165 428.71L450.891 429.452C450.891 429.452 452.895 327.272 456.036 317.695C459.377 307.509 508.484 246.132 508.484 246.132L576.305 237.821C576.305 237.821 584.776 265.031 579.349 278.19C573.922 291.35 524.216 430.818 524.216 430.818L491.301 429.111L528.051 292.504Z" fill="#434242"/>
<path d="M529.105 157.958L535.297 153.303L541.842 157.171L538.969 162.361L550.651 231.937L542.399 250.936L532.524 233.307L533.126 162.665L529.105 157.958Z" fill="#009917"/>
<path d="M534.287 90.1931C538.07 89.9369 547.243 89.1982 548.393 95.8207C549.715 103.375 550.138 113.312 550.272 118.561C550.297 119.563 549.962 120.541 549.327 121.316C548.692 122.092 547.799 122.613 546.812 122.786L523.968 126.791C522.957 126.969 521.916 126.768 521.043 126.227C520.171 125.686 519.528 124.843 519.238 123.858C517.208 116.995 513.611 102.213 514.041 99.8298C515.541 91.7262 528.307 90.6014 534.287 90.1931Z" fill="#434242"/>
<path d="M546.712 124.716C546.712 124.716 549.154 142.534 551.077 144.268C553 146.001 562.006 149.168 562.006 149.168L537.134 171.682L517.353 157.353C517.353 157.353 525.642 151.844 526.083 149.361C526.692 145.927 523.485 128.784 523.485 128.784L546.712 124.716Z" fill="white"/>
<path d="M537.195 172.394L516.407 157.331L517.079 156.885C520.205 154.806 525.276 150.898 525.565 149.26C526.152 145.964 522.967 129.055 522.967 128.885C522.953 128.811 522.954 128.736 522.969 128.664C522.985 128.591 523.014 128.522 523.056 128.46C523.098 128.399 523.152 128.347 523.214 128.306C523.277 128.265 523.346 128.237 523.419 128.224C523.493 128.21 523.568 128.211 523.64 128.226C523.713 128.242 523.782 128.271 523.844 128.313C523.905 128.355 523.957 128.409 523.998 128.472C524.039 128.534 524.067 128.604 524.08 128.677C524.214 129.382 527.317 145.96 526.679 149.465C526.27 151.755 520.465 155.931 518.371 157.371L537.143 170.965L560.968 149.383C558.625 148.533 552.367 146.168 550.73 144.687C548.758 142.898 546.598 127.804 546.186 124.798C546.176 124.724 546.18 124.65 546.199 124.579C546.218 124.507 546.251 124.44 546.295 124.381C546.34 124.323 546.396 124.273 546.459 124.236C546.523 124.199 546.594 124.175 546.667 124.165C546.74 124.155 546.814 124.159 546.886 124.178C546.957 124.197 547.024 124.229 547.083 124.274C547.141 124.319 547.191 124.374 547.228 124.438C547.265 124.502 547.29 124.572 547.3 124.645C548.235 131.453 550.195 142.686 551.487 143.859C552.998 145.225 557.426 148.659 559.902 149.528L561.291 150.604L537.195 172.394Z" fill="#434242"/>
<path d="M538.553 132.274C532.201 134.16 523.89 134.353 521.25 132.5C519.702 131.413 518.281 126.297 517.071 120.376C517.037 120.206 513.863 99.0428 513.863 99.0428L542.859 93.9646C542.859 93.9646 543.92 100.368 544.9 107.584C544.911 107.658 544.94 107.727 544.986 107.785C545.032 107.842 545.092 107.887 545.161 107.914C545.23 107.941 545.305 107.949 545.377 107.937C545.45 107.926 545.519 107.895 545.576 107.848C546.953 106.693 548.939 105.598 549.47 108.267C550.131 111.608 547.506 114.207 546.096 115.191C546.023 115.241 545.966 115.31 545.93 115.39C545.894 115.471 545.881 115.56 545.892 115.647C546.437 120.762 546.719 125.217 546.292 126.887C545.995 127.872 545.397 128.738 544.581 129.363L538.553 132.274Z" fill="white"/>
<path d="M527.91 134.367C524.941 134.367 522.342 133.944 520.931 132.968C519.447 131.925 518.003 127.845 516.525 120.499C516.492 120.328 514.057 104.106 513.31 99.1356L513.232 98.5974L543.319 93.3298L543.412 93.8867C543.412 93.9498 544.463 100.227 545.417 107.25C546.705 106.222 547.785 105.851 548.628 106.137C549.333 106.385 549.801 107.061 550.016 108.141C550.651 111.334 548.498 114.151 546.449 115.606C547.106 121.728 547.232 125.455 546.82 127.006C546.494 128.104 545.832 129.071 544.927 129.772C544.871 129.819 544.806 129.855 544.736 129.877C544.666 129.899 544.592 129.908 544.519 129.901C544.446 129.895 544.375 129.875 544.31 129.841C544.245 129.807 544.187 129.761 544.14 129.705C544.092 129.649 544.057 129.584 544.034 129.514C544.012 129.444 544.004 129.371 544.01 129.298C544.016 129.225 544.037 129.153 544.071 129.088C544.104 129.023 544.15 128.965 544.206 128.918C544.933 128.367 545.469 127.602 545.74 126.732C545.985 125.766 546.111 123.064 545.32 115.688C545.3 115.501 545.33 115.312 545.408 115.141C545.485 114.97 545.608 114.823 545.762 114.715C546.155 114.437 549.608 111.894 548.906 108.36C548.817 107.9 548.628 107.325 548.242 107.187C547.774 107.024 546.927 107.414 545.918 108.256C545.785 108.368 545.624 108.443 545.452 108.471C545.281 108.5 545.105 108.481 544.942 108.418C544.78 108.355 544.638 108.25 544.531 108.113C544.424 107.976 544.355 107.813 544.333 107.64C543.531 101.727 542.662 96.307 542.384 94.5957L514.483 99.4808C515.597 106.842 517.553 119.953 517.605 120.269C519.439 129.375 520.868 131.546 521.559 132.033C523.972 133.725 532.146 133.581 538.378 131.728C538.52 131.686 538.673 131.702 538.803 131.772C538.933 131.842 539.03 131.961 539.073 132.103C539.115 132.245 539.099 132.398 539.029 132.528C538.959 132.658 538.839 132.755 538.698 132.797C535.19 133.808 531.561 134.336 527.91 134.367Z" fill="#434242"/>
<path d="M522.554 115.035C522.363 115.035 522.178 114.968 522.031 114.846C521.883 114.724 521.784 114.555 521.748 114.367L521.622 113.687C521.593 113.479 521.646 113.267 521.769 113.096C521.893 112.925 522.077 112.808 522.284 112.769C522.492 112.73 522.706 112.773 522.883 112.888C523.059 113.003 523.185 113.181 523.234 113.387L523.36 114.066C523.38 114.172 523.378 114.281 523.356 114.386C523.334 114.491 523.291 114.591 523.23 114.68C523.169 114.769 523.091 114.845 523 114.903C522.91 114.961 522.808 115.001 522.702 115.021C522.654 115.031 522.604 115.036 522.554 115.035Z" fill="#434242"/>
<path d="M535.542 112.89C535.348 112.889 535.16 112.82 535.012 112.694C534.864 112.568 534.765 112.394 534.733 112.203L534.621 111.523C534.586 111.309 534.637 111.09 534.763 110.913C534.89 110.737 535.081 110.617 535.295 110.582C535.51 110.547 535.729 110.598 535.906 110.724C536.082 110.85 536.201 111.042 536.237 111.256L536.348 111.939C536.384 112.153 536.333 112.372 536.207 112.548C536.081 112.724 535.89 112.843 535.676 112.879L535.542 112.89Z" fill="#434242"/>
<path d="M532.134 107.893C532.014 107.895 531.897 107.853 531.805 107.775C531.714 107.697 531.654 107.587 531.638 107.468C531.622 107.349 531.651 107.227 531.718 107.128C531.786 107.028 531.888 106.957 532.005 106.927C532.168 106.883 536.021 105.843 538.248 106.768C538.356 106.825 538.439 106.921 538.481 107.036C538.522 107.151 538.52 107.277 538.473 107.39C538.427 107.503 538.341 107.595 538.23 107.648C538.12 107.701 537.994 107.712 537.877 107.677C535.962 106.879 532.309 107.867 532.272 107.874C532.227 107.888 532.181 107.894 532.134 107.893Z" fill="#434242"/>
<path d="M524.157 108.806C524.157 108.806 521.837 108.019 518.704 110.075L524.157 108.806Z" fill="white"/>
<path d="M518.704 110.569C518.597 110.57 518.494 110.537 518.408 110.474C518.322 110.411 518.259 110.322 518.229 110.22C518.198 110.118 518.202 110.009 518.238 109.909C518.275 109.81 518.343 109.724 518.433 109.667C521.729 107.503 524.209 108.305 524.313 108.342C524.374 108.362 524.431 108.394 524.479 108.437C524.528 108.479 524.568 108.531 524.597 108.588C524.625 108.646 524.643 108.709 524.647 108.773C524.652 108.838 524.643 108.902 524.623 108.963C524.602 109.025 524.57 109.081 524.528 109.13C524.485 109.179 524.434 109.218 524.376 109.247C524.318 109.276 524.256 109.293 524.191 109.298C524.127 109.302 524.062 109.294 524.001 109.273C523.912 109.244 521.844 108.602 518.971 110.487C518.892 110.541 518.799 110.569 518.704 110.569Z" fill="#434242"/>
<path d="M529.068 120.172H529.042C528.422 120.15 526.362 119.979 525.92 118.791C525.59 117.9 525.642 117.648 526.269 114.526C526.403 113.854 526.566 113.041 526.759 112.058C526.775 111.977 526.807 111.9 526.852 111.831C526.898 111.762 526.957 111.703 527.025 111.657C527.094 111.611 527.17 111.579 527.251 111.563C527.332 111.546 527.415 111.546 527.496 111.562C527.577 111.578 527.654 111.609 527.723 111.655C527.791 111.701 527.851 111.759 527.897 111.828C527.943 111.896 527.975 111.973 527.991 112.054C528.007 112.135 528.008 112.218 527.992 112.299C527.795 113.29 527.621 114.103 527.498 114.775C526.889 117.8 526.9 117.83 527.097 118.357C527.179 118.576 528.114 118.88 529.094 118.918C529.261 118.921 529.419 118.99 529.534 119.111C529.649 119.231 529.712 119.392 529.709 119.558C529.705 119.724 529.636 119.882 529.516 119.998C529.396 120.113 529.235 120.176 529.068 120.172Z" fill="#434242"/>
<path d="M545.869 115.113C545.869 115.113 545.16 116.115 543.664 118.197C541.942 120.599 522.505 122.856 521.02 122.407C517.776 121.423 518.088 118.695 517.011 119.099C515.675 119.619 519.61 132.983 521.362 134.646C523.114 136.309 537.224 134.534 544.455 131.676C550.461 129.323 545.869 115.113 545.869 115.113Z" fill="#434242"/>
<path d="M543.163 95.4643C543.163 95.4643 522.613 105.487 511.492 99.607C500.37 93.727 515.872 90.6719 525.39 89.9852C534.908 89.2984 548.36 88.8975 543.163 95.4643Z" fill="#434242"/>
<path d="M471.148 182.157C479.504 182.763 518.025 152.438 522.695 152.52C523.066 152.52 535 153.723 535.271 153.552C537.97 151.848 540.056 151.777 541.63 153.002C547.714 151.128 556.081 148.151 556.479 148.221C573.729 151.373 593.099 199.449 594.205 202.734C598.181 214.613 583.362 220.797 583.362 220.797C583.228 222.133 588.01 255.843 588.01 255.843L533.683 257.629L497.348 259.251C497.348 259.251 501.454 200.599 500.318 183.561C499.75 175.186 486.386 219.093 474.392 201.706C459.551 180.231 464.904 181.705 471.148 182.157Z" fill="white"/>
<path d="M496.721 259.838L496.766 259.199C496.807 258.613 500.849 200.377 499.735 183.59C499.735 183.449 499.713 183.334 499.698 183.245C499.041 183.988 497.761 186.341 496.61 188.442C492.812 195.439 487.07 206.019 480.781 206.353C478.298 206.483 475.993 205.024 473.91 202.006C464.114 187.804 463.657 184.307 464.63 182.64C465.517 181.103 467.741 181.281 470.317 181.493L471.215 181.563H471.449C476.375 181.563 491.376 171.496 503.466 163.374C514.046 156.273 520.65 151.911 522.706 151.911H522.728C522.851 151.911 523.471 151.97 525.301 152.145C528.211 152.416 534.169 152.973 535.105 152.962C537.744 151.328 539.982 151.105 541.761 152.334C544.585 151.462 547.904 150.352 550.588 149.454C555.867 147.687 556.297 147.568 556.594 147.623C563.992 148.975 572.508 158.222 581.911 175.093C589.291 188.357 594.306 201.149 594.759 202.504C598.5 213.662 586.221 220.032 583.956 221.109C584.157 223.93 586.781 242.962 588.589 255.713L588.678 256.341L533.716 258.145L496.721 259.838ZM499.839 181.916C499.903 181.916 499.967 181.924 500.029 181.938C500.771 182.098 500.838 183.097 500.864 183.523C501.944 199.434 498.395 252.224 497.957 258.653L533.653 257.057L587.353 255.294C586.573 249.778 582.661 222.044 582.791 220.741L582.828 220.404L583.14 220.27C583.722 220.025 597.42 214.137 593.66 202.916C593.233 201.639 588.118 188.68 580.894 175.702C571.833 159.417 563.38 150.118 556.446 148.796C555.948 148.893 553.398 149.747 550.929 150.571C548.157 151.499 544.701 152.653 541.805 153.541L541.523 153.63L541.289 153.448C539.845 152.334 537.982 152.52 535.584 154.031C535.32 154.194 535.212 154.257 525.19 153.31C523.92 153.192 522.825 153.091 522.699 153.084C520.902 153.084 512.364 158.812 504.108 164.354C491.027 173.137 476.186 183.089 471.141 182.722L470.231 182.651C468.134 182.48 466.148 182.321 465.625 183.234C464.619 184.971 467.644 190.907 474.868 201.379C476.724 204.048 478.68 205.355 480.737 205.239C486.39 204.935 492.174 194.285 495.626 187.919C497.983 183.498 498.904 181.916 499.839 181.916Z" fill="#434242"/>
<path d="M535.27 153.069L532.724 251.901L535.27 153.069Z" fill="#009917"/>
<path d="M532.726 252.436C532.655 252.434 532.586 252.419 532.521 252.39C532.457 252.362 532.398 252.321 532.35 252.27C532.301 252.219 532.263 252.159 532.238 252.093C532.212 252.027 532.2 251.957 532.202 251.886L534.734 153.054C534.748 152.92 534.813 152.795 534.915 152.706C535.017 152.617 535.149 152.57 535.284 152.573C535.42 152.577 535.549 152.632 535.645 152.726C535.742 152.821 535.8 152.949 535.807 153.084L533.249 251.916C533.245 252.053 533.189 252.184 533.091 252.281C532.994 252.377 532.863 252.433 532.726 252.436Z" fill="#434242"/>
<path d="M529.121 158.181L535.316 153.526L542.328 156.737L537.933 162.929L542.362 224.884L534.11 243.883L524.235 226.254L533.144 162.888L529.121 158.181Z" fill="#009917"/>
<path d="M554.3 180.146C554.3 180.146 562.381 198.012 560.525 201.193C558.669 204.375 520.534 207.801 520.534 207.801L522.609 223.644C522.609 223.644 559.675 227.449 580.032 220.303L554.3 180.146Z" fill="white"/>
<path d="M544.756 225.166C532.529 225.166 522.736 224.19 522.547 224.168L522.131 224.127L519.93 207.326L520.475 207.277C520.572 207.277 530.127 206.405 539.778 205.165C557.66 202.867 559.824 201.338 560.076 200.926C561.331 198.78 556.91 187.191 553.829 180.365C553.8 180.301 553.784 180.233 553.782 180.164C553.779 180.095 553.791 180.025 553.815 179.96C553.839 179.895 553.876 179.836 553.923 179.785C553.971 179.734 554.027 179.694 554.091 179.665C554.154 179.636 554.222 179.62 554.291 179.618C554.361 179.615 554.43 179.626 554.495 179.651C554.56 179.675 554.619 179.712 554.67 179.759C554.721 179.807 554.762 179.863 554.79 179.926C555.629 181.783 562.927 198.138 560.99 201.457C560.618 202.062 559.698 203.684 539.908 206.212C531.571 207.285 523.308 208.068 521.136 208.28L523.089 223.158C527.22 223.529 561.004 226.428 579.884 219.817C580.016 219.771 580.161 219.779 580.287 219.839C580.413 219.9 580.51 220.008 580.556 220.14C580.603 220.272 580.595 220.417 580.534 220.543C580.473 220.669 580.365 220.766 580.233 220.812C570.326 224.275 556.439 225.166 544.756 225.166Z" fill="#434242"/>
<path d="M535.271 153.069L547.112 159.224L561.452 148.626L553.694 145.548L535.271 153.069Z" fill="white"/>
<path d="M535.271 153.069L527.408 160.33L516.224 155.701L520.374 151.039L535.271 153.069Z" fill="white"/>
<path d="M562.592 148.474L553.683 144.943L535.167 152.501L520.159 150.593L514.758 156.299L526.874 160.98L535.301 153.715L547.157 159.874L562.592 148.474ZM526.633 159.673L516.77 155.864L520.638 151.781L533.842 153.459L526.633 159.673ZM536.589 153.129L553.665 146.154L560.283 148.774L547.031 158.567L536.589 153.129Z" fill="#434242"/>
<path d="M525.345 172.68L525.582 176.055L513.109 176.953L512.868 173.568L525.345 172.68Z" fill="white"/>
<path d="M512.591 177.551L512.271 173.048L525.862 172.083L526.181 176.574L512.591 177.551ZM513.467 174.084L513.626 176.355L524.989 175.539L524.826 173.278L513.467 174.084Z" fill="#434242"/>
<path d="M441.711 161.644L454.666 214.089H530.32L515.003 161.644H441.711Z" fill="#F7F7F7"/>
<path d="M531.061 214.646H454.22L454.116 214.223L441.001 161.095H515.429L515.548 161.496L531.061 214.646ZM455.1 213.532H529.576L514.583 162.209H442.423L455.1 213.532Z" fill="#434242"/>
<path d="M552.993 214.089H454.732V219.045H552.993V214.089Z" fill="#AFD0B4"/>
<path d="M553.55 219.606H454.18V213.532H553.553L553.55 219.606ZM455.29 218.492H552.436V214.646H455.293L455.29 218.492Z" fill="#434242"/>
<path d="M486.475 197.845C483.056 197.845 480.075 194.645 479.719 190.473C479.347 186.111 481.975 182.306 485.587 182.002C486.494 181.939 487.402 182.083 488.245 182.422C489.088 182.761 489.843 183.286 490.454 183.958C491.835 185.432 492.667 187.337 492.811 189.352C493.01 191.36 492.515 193.377 491.408 195.065C490.921 195.83 490.267 196.475 489.496 196.952C488.725 197.43 487.856 197.727 486.953 197.823C486.785 197.838 486.626 197.845 486.475 197.845ZM486.059 183.093C485.933 183.093 485.806 183.093 485.688 183.093C482.692 183.353 480.513 186.612 480.836 190.361C481.159 194.111 483.85 196.947 486.857 196.698C487.596 196.617 488.306 196.37 488.936 195.976C489.566 195.582 490.099 195.051 490.495 194.422C491.459 192.946 491.887 191.184 491.709 189.43C491.587 187.671 490.865 186.008 489.663 184.719C489.204 184.214 488.647 183.809 488.026 183.526C487.405 183.244 486.733 183.092 486.051 183.078L486.059 183.093Z" fill="#434242"/>
<path d="M470.216 220.229C470.216 220.229 468.824 211.03 466.83 210.578C464.837 210.125 465.475 218.744 465.279 218.8C464.963 218.867 465.126 208.658 463.281 208.072C461.436 207.485 461.667 217.538 461.488 217.516C461.225 217.482 461.771 211.049 460.052 209.683C458.333 208.317 459.068 216.662 458.727 216.528C458.504 216.443 459.298 210.923 457.55 210.63C456.462 210.448 455.193 216.914 455.193 216.914C455.193 216.914 454.473 221.035 458.979 221.985C460.159 222.219 468.786 224.313 470.216 220.229Z" fill="white"/>
<path d="M464.815 223.247C462.878 223.204 460.952 222.955 459.068 222.505L458.872 222.464C453.935 221.421 454.677 216.84 454.684 216.795C456.05 209.82 457.242 210.021 457.654 210.088C458.016 210.152 458.337 210.356 458.549 210.656C458.694 209.78 458.942 209.267 459.354 209.071C459.525 208.993 459.715 208.969 459.899 209C460.084 209.032 460.255 209.119 460.39 209.249C460.907 209.73 461.263 210.358 461.411 211.049C461.633 209.267 461.986 208.102 462.576 207.686C462.702 207.595 462.847 207.535 463 207.512C463.153 207.488 463.309 207.5 463.456 207.549C464.369 207.842 464.871 209.297 465.197 211.858C465.288 211.255 465.569 210.695 465.999 210.262C466.132 210.154 466.289 210.079 466.456 210.041C466.624 210.004 466.798 210.006 466.964 210.047C469.136 210.552 470.405 217.898 470.743 220.136L470.765 220.263L470.721 220.385C470.205 221.825 468.727 223.247 464.815 223.247ZM457.543 211.149C457.079 211.576 456.255 214.186 455.687 217C455.664 217.133 455.122 220.63 459.072 221.454L459.276 221.499C465.119 222.776 468.798 222.304 469.67 220.162C469.021 215.942 467.71 211.294 466.701 211.057C466.688 211.049 466.673 211.044 466.658 211.044C466.643 211.044 466.628 211.049 466.615 211.057C465.821 211.688 465.828 216.057 465.832 217.493C465.836 218.93 465.832 219.168 465.375 219.264L465.141 219.312L464.941 219.164C464.674 218.96 464.655 218.759 464.533 216.662C464.232 211.502 463.757 208.766 463.126 208.525C462.755 208.762 462.283 210.284 462.086 216.09C462.031 217.649 462.031 217.679 461.819 217.861L461.645 218.009L461.414 217.983C460.895 217.917 460.887 217.586 460.861 216.183C460.832 214.602 460.765 210.908 459.748 210.058C459.377 210.708 459.377 213.603 459.377 214.732C459.377 216.435 459.377 216.699 459.057 216.911L458.831 217.063L458.56 216.966C458.159 216.81 458.166 216.525 458.189 215.455C458.263 212.82 458.044 211.361 457.543 211.149Z" fill="#434242"/>
<path d="M526.462 125.031C526.116 125.499 526.514 127.296 528.136 127.043C532.301 126.394 535.842 123.027 534.855 123.357C534.484 123.484 531.855 124.378 530.103 124.761C527.716 125.28 526.851 124.501 526.462 125.031Z" fill="white"/>
<path d="M586.702 369.06L601.922 344.188L628.649 356.624L625.642 376.855L586.702 369.06Z" fill="white"/>
<path d="M626.108 377.512L585.812 369.446L601.708 343.461L629.263 356.279L626.108 377.512ZM587.594 368.666L625.18 376.191L628.038 356.951L602.138 344.901L587.594 368.666Z" fill="#434242"/>
<path d="M553.88 369.464L559.043 353.896L595.292 365.166L588.143 379.25L553.88 369.464Z" fill="white"/>
<path d="M588.433 379.914L553.168 369.839L558.688 353.202L596.088 364.828L588.433 379.914ZM554.593 369.089L587.854 378.589L594.499 365.5L559.401 354.59L554.593 369.089Z" fill="#434242"/>
<path d="M549.276 366.877H631.953L622.053 455.248L558.683 455.437L549.276 366.877Z" fill="#434242"/>
<path d="M655.704 455.838H0.55682C0.409142 455.838 0.267512 455.78 0.163088 455.675C0.0586644 455.571 0 455.429 0 455.281C0 455.134 0.0586644 454.992 0.163088 454.888C0.267512 454.783 0.409142 454.725 0.55682 454.725H655.711C655.859 454.725 656.001 454.783 656.105 454.888C656.21 454.992 656.268 455.134 656.268 455.281C656.268 455.429 656.21 455.571 656.105 455.675C656.001 455.78 655.859 455.838 655.711 455.838H655.704Z" fill="#434242"/>
</svg>
