<svg width="151" height="61" viewBox="0 0 151 61" fill="none" xmlns="http://www.w3.org/2000/svg">
<g clip-path="url(#clip0)">
<path d="M18.8008 35.7313H20.9543V41.2587C20.9543 43.4302 20.0407 44.1541 18.5398 44.1541C17.039 44.1541 16.1254 43.3644 16.1254 41.2587V25.0054C16.1254 22.8339 17.039 22.0442 18.5398 22.0442C20.0407 22.0442 20.9543 22.8339 20.9543 25.0054V28.2297H25.3916V25.3344C25.3916 20.5308 22.9772 17.767 18.4093 17.767C13.7762 17.767 11.427 20.5308 11.427 25.3344V40.9955C11.427 45.7992 13.8415 48.5629 18.4093 48.5629C23.0424 48.5629 25.3916 45.7992 25.3916 40.9955V31.4541H18.8008V35.7313ZM42.2274 48.2339C41.7706 47.1152 41.7053 46.0624 41.7053 44.5489V39.8769C41.7053 36.7183 40.9223 34.481 38.5731 33.494C40.6613 32.5069 41.6401 30.467 41.6401 27.3743V25.0054C41.6401 20.3334 39.5519 18.096 34.6578 18.096H27.545V48.2339H32.2434V35.9945H33.8747C36.0282 35.9945 36.9417 37.0473 36.9417 39.8111V44.5489C36.9417 46.9836 37.1375 47.4442 37.3985 48.2339H42.1621H42.2274ZM34.5925 22.4391C36.2892 22.4391 37.007 23.3603 37.007 25.5318V28.4929C37.007 30.9277 35.9629 31.6515 34.201 31.6515H32.3739V22.3732H34.6578L34.5925 22.4391ZM48.7529 22.4391H56.8445V18.1619H44.0545V48.2997H56.8445V44.0225H48.7529V35.2049H55.2131V30.9277H48.7529V22.5049V22.4391ZM63.6963 22.4391H71.7879V18.1619H58.9979V48.2997H71.7879V44.0225H63.6963V35.2049H70.1565V30.9277H63.6963V22.5049V22.4391ZM83.9906 48.2339H88.8194V18.096H84.6431V36.1261L79.8142 18.096H73.9413V48.2339H78.1829V26.3872L84.0558 48.2339H83.9906Z" fill="#009917"/>
<path d="M102.653 18.0959H95.8016L91.038 48.2338H95.3449L96.1279 42.7721H101.87L102.653 48.2338H107.417L102.653 18.0959ZM98.9991 23.426L101.283 38.6923H96.7805L99.0644 23.426H98.9991ZM119.62 48.2338H124.449L117.923 31.5198L124.449 18.0959H119.75L113.616 31.2566V18.0959H108.918V48.2338H113.616V38.9555L115.052 36.1918L119.62 48.168V48.2338ZM132.932 18.0959H125.819V48.2338H133.193C137.891 48.2338 140.306 45.7332 140.306 41.0612V38.6265C140.306 35.468 139.327 33.1648 136.782 32.1778C138.87 31.1908 139.783 29.2167 139.783 26.1239V25.0711C139.783 20.399 137.695 18.1617 132.801 18.1617L132.932 18.0959ZM132.605 34.6783C134.759 34.6783 135.607 35.5338 135.607 38.3633V40.9954C135.607 43.2327 134.759 43.9566 133.193 43.9566H130.517V34.6783H132.605ZM132.801 22.4389C134.498 22.4389 135.216 23.3602 135.216 25.5317V27.2426C135.216 29.6773 134.172 30.4011 132.41 30.4011H130.583V22.4389H132.866H132.801Z" fill="#434242"/>
<path fill-rule="evenodd" clip-rule="evenodd" d="M20.0118 4.57764e-05H28.9612C30.0881 4.57764e-05 31.0162 0.88778 31.0162 1.96574V7.41897H17.9568V1.96574C17.9568 0.88778 18.8848 4.57764e-05 20.0118 4.57764e-05Z" fill="#009917"/>
<path fill-rule="evenodd" clip-rule="evenodd" d="M122.039 4.57764e-05H130.988C132.115 4.57764e-05 133.043 0.88778 133.043 1.96574V7.41897H119.984V1.96574C119.984 0.88778 120.912 4.57764e-05 122.039 4.57764e-05Z" fill="#434242"/>
<path fill-rule="evenodd" clip-rule="evenodd" d="M39.2184 8.02838H1.37048V5.59367H39.2184V8.02838Z" fill="#009917"/>
<path fill-rule="evenodd" clip-rule="evenodd" d="M89.7838 9.89194H0V4.94599H89.7838V9.89194Z" fill="#009917"/>
<path fill-rule="evenodd" clip-rule="evenodd" d="M89.7838 9.89194H150.184V4.94599H89.7838V9.89194Z" fill="#434242"/>
<path fill-rule="evenodd" clip-rule="evenodd" d="M89.7838 61H0V56.0541H89.7838V61Z" fill="#009917"/>
<path fill-rule="evenodd" clip-rule="evenodd" d="M89.7838 61H151V56.0541H89.7838V61Z" fill="#434242"/>
<path fill-rule="evenodd" clip-rule="evenodd" d="M151 61V4.94599H146.103V61H151Z" fill="#434242"/>
<path fill-rule="evenodd" clip-rule="evenodd" d="M4.8973 61V4.94599H0V61H4.8973Z" fill="#009917"/>
</g>
<defs>
<clipPath id="clip0">
<rect width="151" height="61" fill="white"/>
</clipPath>
</defs>
</svg>
