<svg width="67" height="67" viewBox="0 0 67 67" fill="none" xmlns="http://www.w3.org/2000/svg">
<path d="M38.018 36.1639C38.9203 35.8631 39.8913 36.3452 40.1921 37.2466L42.4263 43.9588L39.1695 45.0501L36.9352 38.3388C36.6345 37.4357 37.1157 36.4647 38.018 36.1639Z" fill="#434242"/>
<path d="M56.2872 36.1639C57.1894 36.4655 57.6793 37.4357 57.3793 38.338L55.1443 45.0493H55.1357L51.8788 43.9579L54.1131 37.2458C54.4138 36.3452 55.3849 35.8631 56.2872 36.1639Z" fill="#434242"/>
<path d="M55.7458 6.86108V10.2984H50.5898V8.57973V6.86108H55.7458Z" fill="#434242"/>
<path d="M17.0763 12.017V14.5949H13.639V12.017H15.3577H17.0763Z" fill="#009917"/>
<path d="M17.0763 28.3441V30.9221H15.3835H13.639V28.3441H17.0763Z" fill="#009917"/>
<path d="M20.5136 14.595V28.3441H17.0763H13.639H10.2018V14.595H13.639H17.0763H20.5136Z" fill="#009917"/>
<path d="M16.9904 37.2457L19.2246 43.9579L15.9678 45.0407L13.7336 38.3294C13.432 37.4357 13.914 36.4552 14.8163 36.1553C15.0054 36.0951 15.1936 36.0616 15.3835 36.0693C16.0967 36.0779 16.7498 36.5325 16.9904 37.2457Z" fill="#009917"/>
<path d="M33.0855 36.1553C33.9878 36.4561 34.4776 37.4357 34.1777 38.3294L31.9426 45.0407H31.934L28.6772 43.9579L30.9114 37.2458C31.2122 36.3452 32.1832 35.8545 33.0855 36.1553Z" fill="#009917"/>
<path d="M22.899 55.8328C22.539 55.8328 22.2039 55.6051 22.0844 55.245L20.3683 50.0951C20.218 49.6448 20.4612 49.1576 20.9114 49.0081C21.3652 48.8568 21.8481 49.1009 21.9985 49.5512L23.7145 54.7011C23.8649 55.1514 23.6217 55.6386 23.1715 55.7881C23.0804 55.8191 22.9893 55.8328 22.899 55.8328Z" fill="#434242"/>
<path d="M22.2348 60.9972C21.1228 60.9972 20.1398 60.2882 19.7883 59.2321L12.9163 38.605C12.6989 37.951 12.7487 37.2524 13.0564 36.6354C13.3649 36.0193 13.8951 35.5604 14.5482 35.343C15.1995 35.1264 15.8956 35.1763 16.5117 35.4813C17.1296 35.789 17.5893 36.32 17.8076 36.974L20.853 46.1137C21.0025 46.564 20.7593 47.0512 20.309 47.2016C19.8553 47.3477 19.3715 47.108 19.2211 46.6577L16.1766 37.5179C16.1044 37.2997 15.9497 37.1226 15.7443 37.0195C15.5407 36.9173 15.3095 36.9018 15.0912 36.9731C14.8721 37.0462 14.6951 37.1991 14.5928 37.4045C14.4906 37.6099 14.4734 37.8428 14.5456 38.061L21.4184 58.689C21.5353 59.0413 21.8636 59.2785 22.2331 59.2785C22.7083 59.2785 23.0924 59.6626 23.0924 60.1378C23.0924 60.613 22.71 60.9972 22.2348 60.9972Z" fill="#434242"/>
<path d="M25.673 60.9956C25.1977 60.9956 24.8136 60.6115 24.8136 60.1363C24.8136 59.6611 25.1977 59.277 25.673 59.277C26.0433 59.277 26.3716 59.0407 26.4876 58.6883L33.3596 38.0595C33.4326 37.8421 33.4154 37.6092 33.3132 37.403C33.2101 37.1976 33.0339 37.0446 32.8165 36.9724C32.5982 36.8994 32.3671 36.9157 32.1608 37.018C31.9554 37.1211 31.8016 37.2973 31.7294 37.5155L28.6849 46.6578C28.5345 47.1073 28.0507 47.3487 27.597 47.2018C27.1475 47.0514 26.9035 46.565 27.053 46.1139L30.0976 36.9724C30.3159 36.3185 30.7756 35.7883 31.3926 35.4807C32.0104 35.1722 32.7091 35.124 33.3596 35.3423C34.0118 35.5589 34.5411 36.0186 34.8488 36.6347C35.1573 37.2509 35.2071 37.9503 34.9888 38.6034L28.1177 59.2314C27.7671 60.2867 26.7849 60.9956 25.673 60.9956Z" fill="#434242"/>
<path d="M25.0078 55.8389C24.9185 55.8389 24.8265 55.8243 24.7363 55.7942C24.2868 55.6447 24.0428 55.1583 24.1932 54.7071L25.911 49.5512C26.0605 49.1018 26.5443 48.8569 26.998 49.0081C27.4474 49.1576 27.6915 49.644 27.5411 50.0952L25.8242 55.2511C25.703 55.6112 25.367 55.8389 25.0078 55.8389Z" fill="#434242"/>
<path d="M25.6729 60.9956H22.2348C21.7596 60.9956 21.3755 60.6115 21.3755 60.1363C21.3755 59.6611 21.7596 59.277 22.2348 59.277H25.6729C26.1481 59.277 26.5322 59.6611 26.5322 60.1363C26.5322 60.6115 26.1481 60.9956 25.6729 60.9956Z" fill="#434242"/>
<path d="M27.8711 47.2456H20.0384C19.5632 47.2456 19.179 46.8615 19.179 46.3863C19.179 45.9111 19.5632 45.527 20.0384 45.527H27.8711C28.3463 45.527 28.7304 45.9111 28.7304 46.3863C28.7304 46.8615 28.3454 47.2456 27.8711 47.2456Z" fill="#434242"/>
<path d="M25.0078 55.8328H22.8999C22.4247 55.8328 22.0406 55.4487 22.0406 54.9735C22.0406 54.4983 22.4247 54.1141 22.8999 54.1141H25.0078C25.483 54.1141 25.8671 54.4983 25.8671 54.9735C25.8671 55.4487 25.4822 55.8328 25.0078 55.8328Z" fill="#434242"/>
<path d="M23.9543 60.9948C23.4791 60.9948 23.095 60.6107 23.095 60.1355V54.9796C23.095 54.5044 23.4791 54.1202 23.9543 54.1202C24.4295 54.1202 24.8136 54.5044 24.8136 54.9796V60.1355C24.8136 60.6107 24.4295 60.9948 23.9543 60.9948Z" fill="#434242"/>
<path d="M24.8136 48.9644C24.5103 48.9644 24.2173 48.8037 24.06 48.5193L23.1122 46.8006C22.8827 46.3856 23.034 45.8623 23.4507 45.6337C23.8641 45.406 24.3891 45.5555 24.6177 45.9723L25.5655 47.6909C25.795 48.106 25.6437 48.6293 25.227 48.8579C25.0963 48.93 24.9537 48.9644 24.8136 48.9644Z" fill="#434242"/>
<path d="M23.9526 50.683C23.8237 50.683 23.6922 50.6538 23.5693 50.5928C23.1448 50.3805 22.973 49.864 23.1852 49.4395L24.0445 47.7209C24.2577 47.2964 24.7741 47.1262 25.1978 47.3368C25.6223 47.549 25.7941 48.0655 25.5819 48.49L24.7226 50.2086C24.5713 50.5094 24.268 50.683 23.9526 50.683Z" fill="#434242"/>
<path d="M26.7256 50.6829H21.1838C20.7086 50.6829 20.3245 50.2988 20.3245 49.8236C20.3245 49.3483 20.7086 48.9642 21.1838 48.9642H26.7256C27.2008 48.9642 27.5849 49.3483 27.5849 49.8236C27.5849 50.2988 27.2 50.6829 26.7256 50.6829Z" fill="#434242"/>
<path d="M15.9669 45.9008C15.6069 45.9008 15.2717 45.6731 15.1523 45.313C15.0019 44.8627 15.2451 44.3764 15.6954 44.226L18.9565 43.1381C19.4102 42.9868 19.8932 43.2309 20.0435 43.6812C20.1939 44.1315 19.9507 44.6178 19.5004 44.7682L16.2393 45.8561C16.1482 45.8862 16.0571 45.9008 15.9669 45.9008Z" fill="#434242"/>
<path d="M31.94 45.9007C31.8506 45.9007 31.7586 45.8861 31.6684 45.856L28.4073 44.7681C27.9579 44.6178 27.7138 44.1322 27.8642 43.6811C28.0146 43.2317 28.4967 42.9868 28.9512 43.138L32.2124 44.2259C32.6618 44.3763 32.9058 44.8618 32.7555 45.3129C32.6352 45.673 32.3 45.9007 31.94 45.9007Z" fill="#434242"/>
<path d="M46.0999 55.8372C45.7398 55.8372 45.4038 55.6094 45.2852 55.2494L43.5692 50.0986C43.4188 49.6483 43.662 49.1611 44.1122 49.0116C44.5651 48.8595 45.0498 49.1044 45.2001 49.5547L46.9162 54.7054C47.0657 55.1557 46.8225 55.643 46.3723 55.7925C46.2812 55.8234 46.1901 55.8372 46.0999 55.8372Z" fill="#434242"/>
<path d="M45.4356 61.0001C44.3245 61.0001 43.3414 60.2911 42.99 59.2359L36.1171 38.607C35.8997 37.9531 35.9496 37.2545 36.258 36.6375C36.5665 36.0213 37.0967 35.5624 37.7498 35.3459C38.3969 35.1268 39.0955 35.1766 39.7117 35.4834C40.3295 35.791 40.7901 36.3221 41.0084 36.9769L44.0538 46.1158C44.2033 46.566 43.9601 47.0533 43.5099 47.2037C43.0561 47.3506 42.5723 47.11 42.422 46.6597L39.3782 37.5217C39.3061 37.3026 39.1514 37.1256 38.9451 37.0224C38.7423 36.921 38.5103 36.9038 38.2938 36.9769C38.0729 37.0499 37.8968 37.2029 37.7945 37.4074C37.6923 37.6128 37.6751 37.8457 37.7473 38.0639L44.6201 58.6928C44.737 59.0451 45.0652 59.2823 45.4347 59.2823C45.9099 59.2823 46.2941 59.6664 46.2941 60.1416C46.2941 60.6168 45.9108 61.0001 45.4356 61.0001Z" fill="#434242"/>
<path d="M48.8737 61.0001C48.3985 61.0001 48.0144 60.6159 48.0144 60.1407C48.0144 59.6655 48.3985 59.2814 48.8737 59.2814C49.2441 59.2814 49.5724 59.0451 49.6892 58.6919L56.5603 38.0631C56.6334 37.8457 56.6162 37.6128 56.5139 37.4066C56.4108 37.202 56.2347 37.0491 56.0181 36.9769C55.7998 36.903 55.5687 36.9193 55.3616 37.0216C55.1562 37.1247 55.0024 37.3017 54.9302 37.52L51.8856 46.6614C51.7353 47.1109 51.2532 47.3532 50.7977 47.2054C50.3483 47.055 50.1043 46.5686 50.2538 46.1175L53.2984 36.9769C53.5166 36.3221 53.9764 35.7919 54.5942 35.4843C55.2112 35.1766 55.909 35.1285 56.5612 35.3468C57.2117 35.5625 57.741 36.0213 58.0495 36.6383C58.358 37.2553 58.4079 37.9539 58.1896 38.607L51.3185 59.2359C50.9679 60.2911 49.9848 61.0001 48.8737 61.0001Z" fill="#434242"/>
<path d="M48.2086 55.8424C48.1193 55.8424 48.0273 55.8278 47.9371 55.7977C47.4877 55.6482 47.2436 55.1618 47.394 54.7106L49.1109 49.5547C49.2613 49.1053 49.7451 48.8595 50.1988 49.0116C50.6482 49.1611 50.8923 49.6475 50.7419 50.0987L49.0241 55.2546C48.9038 55.6147 48.5687 55.8424 48.2086 55.8424Z" fill="#434242"/>
<path d="M48.8737 61H45.4356C44.9604 61 44.5763 60.6159 44.5763 60.1407C44.5763 59.6655 44.9604 59.2814 45.4356 59.2814H48.8737C49.3489 59.2814 49.7331 59.6655 49.7331 60.1407C49.7331 60.6159 49.3489 61 48.8737 61Z" fill="#434242"/>
<path d="M51.0719 47.2492H43.2392C42.764 47.2492 42.3799 46.865 42.3799 46.3898C42.3799 45.9146 42.764 45.5305 43.2392 45.5305H51.0719C51.5471 45.5305 51.9312 45.9146 51.9312 46.3898C51.9312 46.865 51.5462 47.2492 51.0719 47.2492Z" fill="#434242"/>
<path d="M48.2086 55.8373H46.1007C45.6255 55.8373 45.2414 55.4532 45.2414 54.978C45.2414 54.5028 45.6255 54.1187 46.1007 54.1187H48.2086C48.6838 54.1187 49.068 54.5028 49.068 54.978C49.068 55.4532 48.683 55.8373 48.2086 55.8373Z" fill="#434242"/>
<path d="M47.1551 60.9982C46.6799 60.9982 46.2958 60.6141 46.2958 60.1389V54.983C46.2958 54.5078 46.6799 54.1237 47.1551 54.1237C47.6303 54.1237 48.0144 54.5078 48.0144 54.983V60.1389C48.0144 60.6141 47.6303 60.9982 47.1551 60.9982Z" fill="#434242"/>
<path d="M48.0144 48.9678C47.7111 48.9678 47.4181 48.8071 47.2608 48.5227L46.313 46.8041C46.0835 46.389 46.2348 45.8657 46.6515 45.6371C47.0649 45.4085 47.5891 45.5589 47.8185 45.9757L48.7663 47.6943C48.9958 48.1094 48.8445 48.6327 48.4278 48.8613C48.2971 48.9335 48.1545 48.9678 48.0144 48.9678Z" fill="#434242"/>
<path d="M47.1534 50.6864C47.0245 50.6864 46.893 50.6572 46.7701 50.5962C46.3456 50.3839 46.1738 49.8675 46.386 49.443L47.2453 47.7243C47.4576 47.2998 47.9741 47.1297 48.3986 47.3402C48.8231 47.5525 48.9949 48.0689 48.7827 48.4934L47.9234 50.2121C47.7721 50.5128 47.4688 50.6864 47.1534 50.6864Z" fill="#434242"/>
<path d="M49.9264 50.6864H44.3847C43.9095 50.6864 43.5254 50.3023 43.5254 49.8271C43.5254 49.3519 43.9095 48.9678 44.3847 48.9678H49.9264C50.4016 48.9678 50.7858 49.3519 50.7858 49.8271C50.7858 50.3023 50.4008 50.6864 49.9264 50.6864Z" fill="#434242"/>
<path d="M39.1677 45.9052C38.8076 45.9052 38.4725 45.6775 38.3531 45.3174C38.2027 44.8671 38.4459 44.3808 38.8961 44.2304L42.1573 43.1425C42.611 42.9912 43.0939 43.2353 43.2443 43.6856C43.3947 44.1359 43.1515 44.6222 42.7012 44.7726L39.4401 45.8605C39.349 45.8906 39.2579 45.9052 39.1677 45.9052Z" fill="#434242"/>
<path d="M55.1408 45.9052C55.0514 45.9052 54.9595 45.8906 54.8692 45.8605L51.6081 44.7726C51.1587 44.6223 50.9146 44.1368 51.065 43.6856C51.2154 43.2362 51.6975 42.9913 52.1521 43.1425L55.4132 44.2304C55.8626 44.3808 56.1066 44.8663 55.9563 45.3175C55.836 45.6775 55.5008 45.9052 55.1408 45.9052Z" fill="#434242"/>
<path d="M15.3869 36.928C14.9117 36.928 14.5276 36.5438 14.5276 36.0686V30.9239C14.5276 30.4496 14.9117 30.0646 15.3869 30.0646C15.8621 30.0646 16.2462 30.4496 16.2462 30.9239V36.0686C16.2462 36.5438 15.8621 36.928 15.3869 36.928Z" fill="#434242"/>
<path d="M17.0797 31.7832H13.6425C13.1673 31.7832 12.7831 31.3982 12.7831 30.9239V28.3459C12.7831 27.8715 13.1673 27.4866 13.6425 27.4866H17.0797C17.555 27.4866 17.9391 27.8715 17.9391 28.3459V30.9239C17.9391 31.3982 17.555 31.7832 17.0797 31.7832ZM14.5018 30.0645H16.2204V29.2052H14.5018V30.0645Z" fill="#434242"/>
<path d="M17.0797 15.4543H13.6425C13.1673 15.4543 12.7831 15.0693 12.7831 14.595V12.017C12.7831 11.5427 13.1673 11.1577 13.6425 11.1577H17.0797C17.555 11.1577 17.9391 11.5427 17.9391 12.017V14.595C17.9391 15.0693 17.555 15.4543 17.0797 15.4543ZM14.5018 13.7357H16.2204V12.8764H14.5018V13.7357Z" fill="#434242"/>
<path d="M20.5179 29.2051H10.2043C9.72912 29.2051 9.345 28.8201 9.345 28.3458V14.5966C9.345 14.1223 9.72912 13.7373 10.2043 13.7373H20.5179C20.9931 13.7373 21.3772 14.1223 21.3772 14.5966V28.3458C21.3772 28.8201 20.9931 29.2051 20.5179 29.2051ZM11.0636 27.4864H19.6586V15.4559H11.0636V27.4864Z" fill="#434242"/>
<path d="M15.3611 12.8763C14.8859 12.8763 14.5018 12.4913 14.5018 12.0169C14.5018 9.6478 16.4292 7.71948 18.7984 7.71948C19.2736 7.71948 19.6577 8.10446 19.6577 8.5788C19.6577 9.05315 19.2736 9.43812 18.7984 9.43812C17.3771 9.43812 16.2204 10.5948 16.2204 12.0169C16.2204 12.4913 15.8363 12.8763 15.3611 12.8763Z" fill="#434242"/>
<path d="M38.561 12.8763C38.0858 12.8763 37.7017 12.4913 37.7017 12.0169C37.7017 9.6478 39.6292 7.71948 41.9983 7.71948C42.4735 7.71948 42.8576 8.10446 42.8576 8.5788C42.8576 9.05315 42.4735 9.43812 41.9983 9.43812C40.577 9.43812 39.4204 10.5948 39.4204 12.0169C39.4204 12.4913 39.0362 12.8763 38.561 12.8763Z" fill="#434242"/>
<path d="M38.561 36.9322C38.0858 36.9322 37.7017 36.5481 37.7017 36.0729V12.0136C37.7017 11.5393 38.0858 11.1543 38.561 11.1543C39.0362 11.1543 39.4204 11.5393 39.4204 12.0136V36.0729C39.4204 36.5481 39.0362 36.9322 38.561 36.9322Z" fill="#434242"/>
<path d="M50.5915 9.43812H18.7984C18.3232 9.43812 17.9391 9.05315 17.9391 8.5788C17.9391 8.10446 18.3232 7.71948 18.7984 7.71948H50.5915C51.0667 7.71948 51.4508 8.10446 51.4508 8.5788C51.4508 9.05315 51.0667 9.43812 50.5915 9.43812Z" fill="#434242"/>
<path d="M55.7475 11.1576H50.5916C50.1164 11.1576 49.7322 10.7727 49.7322 10.2983V6.85932C49.7322 6.38498 50.1164 6 50.5916 6H55.7475C56.2227 6 56.6068 6.38498 56.6068 6.85932V10.2983C56.6068 10.7727 56.2227 11.1576 55.7475 11.1576ZM51.4509 9.439H54.8882V7.71864H51.4509V9.439Z" fill="#434242"/>
</svg>
