<svg width="67" height="67" viewBox="0 0 67 67" fill="none" xmlns="http://www.w3.org/2000/svg">
<path d="M32.3677 16.4715L30.8746 13.2368L32.3677 10.0021C32.581 9.53999 33.0435 9.24402 33.5525 9.24402H42.0007C42.5096 9.24402 42.9723 9.53999 43.1855 10.0021L44.6785 13.2367L43.1855 16.4714C42.9721 16.9335 42.5096 17.2295 42.0007 17.2295H33.5525C33.0435 17.2296 32.581 16.9336 32.3677 16.4715Z" fill="#009917"/>
<path d="M33.7358 28.7645L26.4883 41.3174C25.9421 42.2635 26.6248 43.4461 27.7174 43.4461H42.2122C43.3046 43.4461 43.9874 42.2635 43.4413 41.3174L36.1938 28.7645C35.6476 27.8184 34.2821 27.8184 33.7358 28.7645Z" fill="#009917"/>
<path d="M4.3692 16.7283V54.4664H21.9464V16.7283C21.9464 16.0076 21.3622 15.4233 20.6414 15.4233H5.67421C4.95345 15.4233 4.3692 16.0076 4.3692 16.7283Z" fill="#009917"/>
<path d="M65.3643 53.8048H42.1743L40.6746 49.6756H46.9837C47.4698 49.6756 47.9339 49.5247 48.3257 49.2396L54.6153 44.6654H57.9793C59.242 44.6654 60.2694 43.6322 60.2694 42.3623V40.2781H62.8032C64.0659 40.2781 65.0932 39.2449 65.0932 37.975V33.8604C65.0932 32.5905 64.0659 31.5573 62.8032 31.5573H60.2694V29.473C60.2694 28.2031 59.242 27.1699 57.9793 27.1699H54.6153L48.3257 22.5956C47.9337 22.3104 47.4696 22.1597 46.9837 22.1597H40.7758V18.227H41.9322C42.8222 18.227 43.6383 17.7019 44.0114 16.8892L45.2455 14.2004H46.5577C47.0998 14.2004 47.5391 13.7586 47.5391 13.2134C47.5391 12.6681 47.0998 12.2263 46.5577 12.2263H45.2454L44.0114 9.53766C43.6383 8.725 42.8222 8.1999 41.9322 8.1999H38.6778V6.98703C38.6778 6.4418 38.2385 6 37.6964 6C37.1542 6 36.715 6.4418 36.715 6.98703V8.1999H33.4607C32.5706 8.1999 31.7545 8.725 31.3814 9.53766L30.1474 12.2263H28.8351C28.293 12.2263 27.8537 12.6681 27.8537 13.2134C27.8537 13.7586 28.293 14.2004 28.8351 14.2004H30.1473L31.3814 16.8892C31.7545 17.7019 32.5706 18.227 33.4607 18.227H34.6177V22.1597H22.8041V16.7344C22.8041 15.4646 21.7767 14.4314 20.514 14.4314H15.2998C14.7577 14.4314 14.3184 14.8732 14.3184 15.4184C14.3184 15.9636 14.7577 16.4054 15.2998 16.4054H20.514C20.6945 16.4054 20.8412 16.553 20.8412 16.7344V53.8048H5.17824V16.7344C5.17824 16.553 5.32493 16.4054 5.50538 16.4054H10.7196C11.2618 16.4054 11.7011 15.9636 11.7011 15.4184C11.7011 14.8732 11.2618 14.4314 10.7196 14.4314H5.50538C4.24272 14.4314 3.21535 15.4646 3.21535 16.7344V53.8048H1.63574C0.733729 53.8048 0 54.5427 0 55.4498V59.3549C0 60.2621 0.733729 61 1.63574 61H47.3602C47.9024 61 48.3417 60.5582 48.3417 60.013C48.3417 59.4677 47.9024 59.0259 47.3602 59.0259H1.96289V55.7789H65.0371V59.0259H51.9403C51.3982 59.0259 50.9589 59.4677 50.9589 60.013C50.9589 60.5582 51.3982 61 51.9403 61H65.3643C66.2663 61 67 60.2621 67 59.3549V55.4498C67 54.5428 66.2663 53.8048 65.3643 53.8048ZM34.4521 48.2124H38.0535L40.0846 53.8048H32.4212L34.4521 48.2124ZM62.8032 33.5314C62.9837 33.5314 63.1304 33.6789 63.1304 33.8604V37.975C63.1304 38.1565 62.9837 38.304 62.8032 38.304H60.2694V33.5314H62.8032ZM58.3064 29.473V42.3622C58.3064 42.5437 58.1597 42.6912 57.9792 42.6912H55.2791V29.144H57.9792C58.1597 29.144 58.3064 29.2915 58.3064 29.473ZM33.1636 10.3652C33.2168 10.2491 33.3335 10.1741 33.4607 10.1741H41.9322C42.0594 10.1741 42.1758 10.2491 42.2292 10.3652L43.0835 12.2265H32.3093L33.1636 10.3652ZM33.1636 16.0618L32.3093 14.2004H43.0835L42.2292 16.0618C42.176 16.1779 42.0594 16.2529 41.9322 16.2529H33.4607C33.3335 16.2529 33.2168 16.1779 33.1636 16.0618ZM36.5804 18.227H38.8129V22.1597H36.5804V18.227ZM46.9837 24.1338C47.0539 24.1338 47.1202 24.155 47.1756 24.1952L53.3163 28.6614V43.174L47.1752 47.6402C47.1201 47.6804 47.0538 47.7016 46.9837 47.7016H39.9576L39.8672 47.4525C39.6033 46.7263 38.9096 46.2383 38.1408 46.2383H34.365C33.5959 46.2383 32.902 46.7264 32.6386 47.4526L32.5481 47.7016H22.8041V24.1338H46.9837ZM22.8039 49.6756H31.8312L30.3315 53.8048H22.8041V49.6756H22.8039Z" fill="#434242"/>
<path d="M33.9431 38.0141H34.855L34.1999 39.5069C33.9013 40.1872 34.3119 41.0007 34.9316 41C35.2282 41 35.5151 40.8058 35.6648 40.4645L36.8894 37.6743C37.2208 36.9127 36.7679 35.9857 36.0569 35.9857H35.145L35.8001 34.493C36.0168 33.9993 35.8644 33.3847 35.4599 33.1202C35.0557 32.8561 34.5518 33.0416 34.3352 33.5353L33.1108 36.325C32.7791 37.0865 33.232 38.0141 33.9431 38.0141Z" fill="#434242"/>
<path d="M25.3369 42.8251C25.786 43.5607 26.5908 44 27.4891 44H42.5111C43.4095 44 44.214 43.5607 44.6631 42.8252C45.1123 42.0895 45.1123 41.2111 44.6631 40.4754L37.1522 28.1748C36.703 27.4393 35.8985 27 35 27C34.1017 27 33.2971 27.4391 32.8477 28.1747L25.3367 40.4754C24.8877 41.2111 24.8877 42.0895 25.3369 42.8251ZM27.0937 41.4345L34.6047 29.1339C34.7195 28.9462 34.9015 28.9182 35 28.9182C35.0985 28.9182 35.2806 28.9462 35.3953 29.1339L42.9063 41.4345C43.0818 41.7222 42.8652 42.0818 42.5111 42.0818H27.4891C27.1351 42.0818 26.9182 41.722 27.0937 41.4345Z" fill="#434242"/>
<path d="M48.1782 31H48.8218C49.4726 31 50 30.5524 50 30C50 29.4476 49.4726 29 48.8218 29H48.1782C47.5274 29 47 29.4476 47 30C47 30.5524 47.5275 31 48.1782 31Z" fill="#434242"/>
<path d="M48.1782 43H48.8218C49.4726 43 50 42.5524 50 42C50 41.4476 49.4726 41 48.8218 41H48.1782C47.5274 41 47 41.4476 47 42C47 42.5524 47.5275 43 48.1782 43Z" fill="#434242"/>
<path d="M16.0137 45H9.98634C9.44149 45 9 45.4476 9 46C9 46.5524 9.44149 47 9.98634 47H16.0137C16.5585 47 17 46.5524 17 46C17 45.4476 16.5585 45 16.0137 45Z" fill="#434242"/>
<path d="M16.0137 40H9.98634C9.44149 40 9 40.4476 9 41C9 41.5524 9.44149 42 9.98634 42H16.0137C16.5585 42 17 41.5524 17 41C17 40.4476 16.5585 40 16.0137 40Z" fill="#434242"/>
<path d="M16.0137 35H9.98634C9.44149 35 9 35.4476 9 36C9 36.5524 9.44149 37 9.98634 37H16.0137C16.5585 37 17 36.5524 17 36C17 35.4476 16.5585 35 16.0137 35Z" fill="#434242"/>
<path d="M13.5 23C11.5701 23 10 24.5701 10 26.5C10 28.4299 11.5701 30 13.5 30C15.4299 30 17 28.4299 17 26.5C17 24.5701 15.4299 23 13.5 23ZM13.5 28.0884C12.6241 28.0884 11.9116 27.3759 11.9116 26.5C11.9116 25.6241 12.6241 24.9116 13.5 24.9116C14.3759 24.9116 15.0884 25.6241 15.0884 26.5C15.0884 27.3759 14.3759 28.0884 13.5 28.0884Z" fill="#434242"/>
</svg>
